<svg width="166" height="167" viewBox="0 0 166 167" fill="none" xmlns="http://www.w3.org/2000/svg">
<path d="M118.029 118.124V107.792H48.1155V118.124H118.029ZM83.5887 88.6779V78.3459H48.1155V88.6779H83.5887ZM104.253 59.2317V48.8997H48.1155L48.1155 59.2317H104.253ZM145.064 135.172C145.064 137.927 144.031 140.338 141.964 142.404C139.898 144.471 137.487 145.504 134.732 145.504H31.4121C28.6569 145.504 26.2461 144.471 24.1797 142.404C22.1133 140.338 21.0801 137.927 21.0801 135.172L21.0801 31.8519C21.0801 29.0967 22.1133 26.6859 24.1797 24.6195C26.2461 22.5531 28.6569 21.5199 31.4121 21.5199H134.732C137.487 21.5199 139.898 22.5531 141.964 24.6195C144.031 26.6859 145.064 29.0967 145.064 31.8519V135.172ZM134.732 135.172V31.8519H31.4121L31.4121 135.172H134.732Z" fill="black"/>
</svg>
