<svg width="111" height="112" viewBox="0 0 111 112" fill="none" xmlns="http://www.w3.org/2000/svg">
<path d="M55.7046 101.917C53.1025 101.917 50.9022 101.017 49.1036 99.2188C47.3051 97.4203 46.4058 95.2199 46.4058 92.6178H65.0034C65.0034 95.2199 64.1042 97.4203 62.3056 99.2188C60.5071 101.017 58.3068 101.917 55.7046 101.917ZM37.107 85.5002V78.6122H74.3022V85.5002H37.107ZM37.681 71.6094C32.6298 68.3185 28.631 64.2048 25.6844 59.2684C22.7379 54.332 21.2646 48.7642 21.2646 42.565C21.2646 33.2279 24.6704 25.1537 31.4818 18.3422C38.2933 11.5307 46.3676 8.125 55.7046 8.125C65.0417 8.125 73.116 11.5307 79.9274 18.3422C86.7389 25.1537 90.1446 33.2279 90.1446 42.565C90.1446 48.7642 88.6905 54.332 85.7822 59.2684C82.874 64.2048 78.856 68.3185 73.7282 71.6094H37.681ZM40.2066 64.7214H71.3174C74.991 62.2723 77.8993 59.0962 80.0422 55.193C82.1852 51.2898 83.2566 47.0805 83.2566 42.565C83.2566 34.9882 80.5588 28.502 75.1632 23.1064C69.7676 17.7108 63.2814 15.013 55.7046 15.013C48.1278 15.013 41.6416 17.7108 36.246 23.1064C30.8504 28.502 28.1526 34.9882 28.1526 42.565C28.1526 47.0805 29.2241 51.2898 31.367 55.193C33.51 59.0962 36.4565 62.2723 40.2066 64.7214Z" fill="black"/>
</svg>
