<svg width="25" height="23" viewBox="0 0 25 23" fill="none" xmlns="http://www.w3.org/2000/svg">
<path d="M2.45825 22.4997C1.99159 22.4997 1.58325 22.3247 1.23325 21.9747C0.883252 21.6247 0.708252 21.2163 0.708252 20.7497V6.74967C0.708252 6.28301 0.883252 5.87467 1.23325 5.52467C1.58325 5.17467 1.99159 4.99967 2.45825 4.99967H7.70825V2.08301C7.70825 1.61634 7.88325 1.20801 8.23325 0.858008C8.58325 0.508008 8.99159 0.333008 9.45825 0.333008H15.2916C15.7583 0.333008 16.1666 0.508008 16.5166 0.858008C16.8666 1.20801 17.0416 1.61634 17.0416 2.08301V4.99967H22.2916C22.7583 4.99967 23.1666 5.17467 23.5166 5.52467C23.8666 5.87467 24.0416 6.28301 24.0416 6.74967V20.7497C24.0416 21.2163 23.8666 21.6247 23.5166 21.9747C23.1666 22.3247 22.7583 22.4997 22.2916 22.4997H2.45825ZM2.45825 20.7497H22.2916V6.74967L12.3748 13L2.45825 6.74967V20.7497ZM9.45825 4.99967H15.2916V2.08301H9.45825V4.99967Z" fill="black"/>
</svg>
