<svg width="25" height="24" viewBox="0 0 25 24" fill="none" xmlns="http://www.w3.org/2000/svg">
<path d="M2 13.0714L1.45581 12.5553C1.24955 12.7728 1.19259 13.0922 1.31095 13.3676C1.42931 13.643 1.70026 13.8214 2 13.8214L2 13.0714ZM12.5 2L13.0442 1.4839C12.9026 1.33457 12.7058 1.25 12.5 1.25C12.2942 1.25 12.0974 1.33457 11.9558 1.4839L12.5 2ZM5.5 13.0714H6.25C6.25 12.6572 5.91421 12.3214 5.5 12.3214V13.0714ZM5.5 22H4.75C4.75 22.4142 5.08579 22.75 5.5 22.75V22ZM10 22V22.75C10.4142 22.75 10.75 22.4142 10.75 22H10ZM15 22H14.25C14.25 22.4142 14.5858 22.75 15 22.75V22ZM19.5 22V22.75C19.9142 22.75 20.25 22.4142 20.25 22H19.5ZM19.5 13.0714V12.3214C19.0858 12.3214 18.75 12.6572 18.75 13.0714H19.5ZM23 13.0714V13.8214C23.2997 13.8214 23.5707 13.643 23.689 13.3676C23.8074 13.0922 23.7504 12.7728 23.5442 12.5553L23 13.0714ZM2.54419 13.5875L13.0442 2.5161L11.9558 1.4839L1.45581 12.5553L2.54419 13.5875ZM5.5 12.3214H2V13.8214H5.5V12.3214ZM6.25 22V13.0714H4.75V22H6.25ZM10 21.25H5.5V22.75H10V21.25ZM10.75 22V16.5H9.25V22H10.75ZM10.75 16.5C10.75 15.5335 11.5335 14.75 12.5 14.75V13.25C10.7051 13.25 9.25 14.7051 9.25 16.5H10.75ZM12.5 14.75C13.4665 14.75 14.25 15.5335 14.25 16.5H15.75C15.75 14.7051 14.2949 13.25 12.5 13.25V14.75ZM14.25 16.5V22H15.75V16.5H14.25ZM19.5 21.25H15V22.75H19.5V21.25ZM18.75 13.0714V22H20.25V13.0714H18.75ZM23 12.3214H19.5V13.8214H23V12.3214ZM11.9558 2.5161L22.4558 13.5875L23.5442 12.5553L13.0442 1.4839L11.9558 2.5161Z" fill="black"/>
</svg>
