<svg width="24" height="24" viewBox="0 0 24 24" fill="none" xmlns="http://www.w3.org/2000/svg">
<path d="M4 19L3.07078 18.6305C2.93537 18.971 2.99704 19.3583 3.23154 19.6399C3.46603 19.9215 3.83577 20.0523 4.19517 19.9808L4 19ZM8.70588 18.0635L9.17953 17.1828L8.86309 17.0126L8.51071 17.0828L8.70588 18.0635ZM5.6239 14.9167L6.55311 15.2862L6.71749 14.8729L6.52058 14.474L5.6239 14.9167ZM19 12C19 15.2463 16.1466 18 12.4706 18V20C17.1113 20 21 16.4857 21 12H19ZM5.94118 12C5.94118 8.7537 8.79458 6 12.4706 6V4C7.82984 4 3.94118 7.51431 3.94118 12H5.94118ZM12.4706 6C16.1466 6 19 8.7537 19 12H21C21 7.51431 17.1113 4 12.4706 4V6ZM12.4706 18C11.2659 18 10.1426 17.7008 9.17953 17.1828L8.23224 18.9442C9.48408 19.6175 10.9325 20 12.4706 20V18ZM4.19517 19.9808L8.90106 19.0443L8.51071 17.0828L3.80483 18.0192L4.19517 19.9808ZM6.52058 14.474C6.14786 13.719 5.94118 12.8822 5.94118 12H3.94118C3.94118 13.1997 4.22326 14.3385 4.72721 15.3593L6.52058 14.474ZM4.69468 14.5471L3.07078 18.6305L4.92922 19.3695L6.55311 15.2862L4.69468 14.5471Z" fill="black"/>
<circle cx="9" cy="12" r="1" fill="black"/>
<circle cx="12.5" cy="12" r="1" fill="black"/>
<circle cx="16" cy="12" r="1" fill="black"/>
</svg>
