<svg width="25" height="25" viewBox="0 0 25 25" fill="none" xmlns="http://www.w3.org/2000/svg">
    <path d="M12.0996 11.9766C10.9996 11.9766 10.0996 11.6266 9.39961 10.9266C8.69961 10.2266 8.34961 9.32656 8.34961 8.22656C8.34961 7.12656 8.69961 6.22656 9.39961 5.52656C10.0996 4.82656 10.9996 4.47656 12.0996 4.47656C13.1996 4.47656 14.0996 4.82656 14.7996 5.52656C15.4996 6.22656 15.8496 7.12656 15.8496 8.22656C15.8496 9.32656 15.4996 10.2266 14.7996 10.9266C14.0996 11.6266 13.1996 11.9766 12.0996 11.9766ZM4.09961 20.0016V17.6516C4.09961 17.0182 4.25794 16.4766 4.57461 16.0266C4.89128 15.5766 5.29961 15.2349 5.79961 15.0016C6.91628 14.5016 7.98711 14.1266 9.01211 13.8766C10.0371 13.6266 11.0663 13.5016 12.0996 13.5016C13.1329 13.5016 14.1579 13.6307 15.1746 13.8891C16.1913 14.1474 17.2579 14.5182 18.3746 15.0016C18.8913 15.2349 19.3079 15.5766 19.6246 16.0266C19.9413 16.4766 20.0996 17.0182 20.0996 17.6516V20.0016H4.09961ZM5.59961 18.5016H18.5996V17.6516C18.5996 17.3849 18.5204 17.1307 18.3621 16.8891C18.2038 16.6474 18.0079 16.4682 17.7746 16.3516C16.7079 15.8349 15.7329 15.4807 14.8496 15.2891C13.9663 15.0974 13.0496 15.0016 12.0996 15.0016C11.1496 15.0016 10.2246 15.0974 9.32461 15.2891C8.42461 15.4807 7.44961 15.8349 6.39961 16.3516C6.16628 16.4682 5.97461 16.6474 5.82461 16.8891C5.67461 17.1307 5.59961 17.3849 5.59961 17.6516V18.5016ZM12.0996 10.4766C12.7496 10.4766 13.2871 10.2641 13.7121 9.83906C14.1371 9.41406 14.3496 8.87656 14.3496 8.22656C14.3496 7.57656 14.1371 7.03906 13.7121 6.61406C13.2871 6.18906 12.7496 5.97656 12.0996 5.97656C11.4496 5.97656 10.9121 6.18906 10.4871 6.61406C10.0621 7.03906 9.84961 7.57656 9.84961 8.22656C9.84961 8.87656 10.0621 9.41406 10.4871 9.83906C10.9121 10.2641 11.4496 10.4766 12.0996 10.4766Z" fill="black"/>
</svg>
