<svg width="111" height="112" viewBox="0 0 111 112" fill="none" xmlns="http://www.w3.org/2000/svg">
<path d="M66.6632 82.0577C63.6823 82.0577 61.1739 81.0398 59.1381 79.004C57.1023 76.9683 56.0844 74.4599 56.0844 71.4789C56.0844 68.4979 57.1023 65.9896 59.1381 63.9538C61.1739 61.918 63.6823 60.9001 66.6632 60.9001C69.6442 60.9001 72.1526 61.918 74.1884 63.9538C76.2241 65.9896 77.242 68.4979 77.242 71.4789C77.242 74.4599 76.2241 76.9683 74.1884 79.004C72.1526 81.0398 69.6442 82.0577 66.6632 82.0577ZM21.1852 97.3261C19.4402 97.3261 17.9134 96.6718 16.6047 95.363C15.296 94.0543 14.6416 92.5275 14.6416 90.7825V23.1653C14.6416 21.4204 15.296 19.8935 16.6047 18.5848C17.9134 17.2761 19.4402 16.6217 21.1852 16.6217H28.2741V10.0781H35.363V16.6217H72.4434V10.0781H79.5323V16.6217H86.6212C88.3662 16.6217 89.893 17.2761 91.2017 18.5848C92.5104 19.8935 93.1648 21.4204 93.1648 23.1653V90.7825C93.1648 92.5275 92.5104 94.0543 91.2017 95.363C89.893 96.6718 88.3662 97.3261 86.6212 97.3261H21.1852ZM21.1852 90.7825H86.6212V43.8867H21.1852V90.7825ZM21.1852 37.3431H86.6212V23.1653H21.1852V37.3431Z" fill="black"/>
</svg>
