<svg width="111" height="112" viewBox="0 0 111 112" fill="none" xmlns="http://www.w3.org/2000/svg">
<path d="M36.352 83.5523C30.459 83.5523 25.9818 81.3711 22.9204 77.0087C19.8591 72.6463 18.405 67.7481 18.558 62.3143L16.4916 59.2147C15.6498 57.9136 14.253 54.9671 12.3014 50.3751C10.3498 45.7831 9.37402 40.0048 9.37402 33.0403C9.37402 25.1573 11.3256 18.5946 15.2288 13.3521C19.132 8.10955 24.0684 5.48828 30.038 5.48828C36.5434 5.48828 41.6137 8.37741 45.249 14.1557C48.8844 19.9339 50.702 26.2288 50.702 33.0403C50.702 37.4792 50.0898 41.5737 48.8652 45.3239C47.6407 49.074 46.5692 52.0971 45.6508 54.3931L46.5692 55.8855C47.1815 56.957 48.0234 58.6598 49.0948 60.9941C50.1663 63.3283 50.702 65.7583 50.702 68.2839C50.702 72.6463 49.3436 76.2816 46.6266 79.1899C43.9097 82.0981 40.4848 83.5523 36.352 83.5523ZM22.576 55.8855L39.1072 52.4415C40.1787 49.5332 41.231 46.3188 42.2642 42.7983C43.2974 39.2777 43.814 36.0251 43.814 33.0403C43.814 27.9125 42.6086 23.1866 40.1978 18.8625C37.787 14.5383 34.4004 12.3763 30.038 12.3763C26.0583 12.3763 22.7674 14.3279 20.1652 18.2311C17.5631 22.1343 16.262 27.0707 16.262 33.0403C16.262 39.0099 17.1422 44.042 18.9024 48.1365C20.6627 52.231 21.8872 54.814 22.576 55.8855ZM36.352 76.6643C38.495 76.6643 40.2744 75.8798 41.6902 74.3109C43.1061 72.742 43.814 70.7329 43.814 68.2839C43.814 66.7532 43.4696 65.1651 42.7808 63.5197C42.092 61.8742 41.3267 60.4009 40.4848 59.0999L25.446 62.1995C25.3695 65.4904 26.1922 68.7239 27.9142 71.9001C29.6362 75.0762 32.4488 76.6643 36.352 76.6643ZM74.236 106.512C70.1032 106.512 66.6784 105.058 63.9614 102.15C61.2445 99.2416 59.886 95.6063 59.886 91.2439C59.886 88.7183 60.4218 86.2883 61.4932 83.9541C62.5647 81.6198 63.4066 79.9169 64.0188 78.8455L64.9372 77.3531C64.0188 75.0571 62.9474 72.034 61.7228 68.2839C60.4983 64.5337 59.886 60.4392 59.886 56.0003C59.886 49.1888 61.7037 42.8939 65.339 37.1157C68.9744 31.3374 74.0447 28.4483 80.55 28.4483C86.5196 28.4483 91.456 31.0695 95.3592 36.3121C99.2624 41.5546 101.214 48.1173 101.214 56.0003C101.214 62.9648 100.238 68.7239 98.2866 73.2777C96.335 77.8314 94.9383 80.7588 94.0964 82.0599L92.03 85.2743C92.1066 90.7081 90.6333 95.6063 87.6102 99.9687C84.5872 104.331 80.1291 106.512 74.236 106.512ZM88.012 78.7307C88.7774 77.5827 90.021 74.9805 91.743 70.9243C93.465 66.868 94.326 61.8933 94.326 56.0003C94.326 50.0307 93.025 45.0943 90.4228 41.1911C87.8207 37.2879 84.5298 35.3363 80.55 35.3363C76.1876 35.3363 72.801 37.4983 70.3902 41.8225C67.9794 46.1466 66.774 50.8725 66.774 56.0003C66.774 59.0616 67.3098 62.3334 68.3812 65.8157C69.4527 69.2979 70.5242 72.4932 71.5956 75.4015L88.012 78.7307ZM74.236 99.6243C78.1392 99.6243 80.9327 98.0171 82.6164 94.8027C84.3002 91.5883 85.142 88.3356 85.142 85.0447L70.1032 82.0599C69.3379 83.3609 68.5917 84.8342 67.8646 86.4797C67.1376 88.1252 66.774 89.7132 66.774 91.2439C66.774 93.6929 67.482 95.7019 68.8978 97.2709C70.3137 98.8398 72.0931 99.6243 74.236 99.6243Z" fill="black"/>
</svg>
