<svg xmlns="http://www.w3.org/2000/svg" xml:space="preserve" width="708.21362" height="300" viewBox="0 0 708.21362 300"><path d="M919.431 177.725H559.174v1h360.257z" style="fill:#231f20;fill-opacity:1;fill-rule:nonzero;stroke:none" transform="matrix(1.92646 0 0 -1.92646 -1070.13 538.36)"/><path d="m688.52 131.27-3.102 2.41H665.4l-3.102-2.41h-3.158a21.014 21.014 0 0 0-4.349 7.838h9.832l3.1 2.414h15.375l3.098-2.414h9.832a21.06 21.06 0 0 0-4.35-7.839zm-3.042 10.252-3.098 2.41h-13.944l-3.098-2.41h-11.142a22.6 22.6 0 0 0-.361 4.04c0 .785 0 1.508.122 2.291h13.29l3.097 2.414h10.13l3.102-2.414h13.347c.057-.72.119-1.506.119-2.29 0-1.386-.18-2.713-.417-4.04zm-2.56 8.745-3.158 2.412h-8.759l-3.042-2.412h-13.643c.416 1.931 1.133 3.738 1.964 5.428h13.23l3.158 2.414h5.542l3.1-2.414h13.23a21.223 21.223 0 0 0 1.966-5.428zm-18.236-18.998h21.452l3.102-2.41a21.151 21.151 0 0 0-13.824-5.13c-5.248 0-10.074 1.932-13.828 5.13zm15.851 26.84-3.036 2.41h-4.111l-3.161-2.41H657.77c1.133 1.688 2.563 3.194 4.114 4.522h9.71l3.102 2.412h1.429l3.099-2.412h9.713c1.55-1.328 2.979-2.834 4.17-4.522zm-2.027 6.934-3.094 2.413c3.511 0 6.91-.906 9.831-2.412zm-6.199 0h-6.73c2.92 1.506 6.258 2.413 9.836 2.413zM708.575 161.07h1.951l1.978-9.15 2.55 6.601-.873 2.55h1.976l2.902-9.096 2.413 9.095h1.895l-3.03-10.419h-2.592l-1.934 5.762-2.14-5.762h-2.635zM729.643 154.66c0 1.385-.364 2.682-1.937 2.682-1.558 0-1.964-1.297-1.964-2.682 0-1.49.465-2.61 1.98-2.61 1.545 0 1.92 1.166 1.92 2.61m-5.863-.06c0 2.713 1.582 4.304 3.986 4.304 2.605 0 3.858-1.575 3.858-4.216 0-2.8-1.69-4.216-4.003-4.216-2.461 0-3.841 1.564-3.841 4.128M733.28 158.698h1.937v-1.076c.38.547 1.155 1.24 2.141 1.24.45 0 .775-.047 1.033-.136l-.276-1.62c-.38.074-.566.087-1.017.087-.803 0-1.53-.472-1.88-.912v-5.63h-1.938zM739.5 161.766h1.937v-11.114H739.5ZM748.481 152.669v4.512c-.159.028-.609.16-1.18.16-1.658 0-2.24-1.132-2.24-2.665 0-1.874.842-2.522 1.834-2.522.61 0 1.21.296 1.586.515m-5.372 1.888c0 3.065 1.808 4.348 4.165 4.348.393 0 .67-.03 1.207-.134v2.992h1.937V150.65h-1.937v.649c-.437-.356-.93-.784-1.95-.784-1.457 0-3.422.828-3.422 4.04M756.271 161.07h6.378v-1.592h-4.398v-2.844h4.074v-1.5h-4.074v-2.894h4.732v-1.589h-6.712zM766.696 154.76l-2.679 3.939h2.241l1.543-2.698 1.556 2.698h2.201l-2.664-3.922 2.9-4.128h-2.333l-1.66 2.876-1.687-2.876h-2.287zM778.414 154.894c0 1.447-.554 2.346-1.877 2.346-.7 0-1.194-.252-1.6-.427v-4.673c.143-.016.74-.12 1.193-.12 1.571 0 2.284 1.209 2.284 2.874m-5.4 3.805h1.922v-.605c.654.472 1.264.796 2.242.796 1.834 0 3.203-1.18 3.203-3.921 0-3.333-2.024-4.47-4.223-4.47-.494 0-.902.047-1.222.079v-3.172h-1.923zM787.427 154.66c0 1.385-.363 2.682-1.937 2.682-1.557 0-1.963-1.297-1.963-2.682 0-1.49.466-2.61 1.98-2.61 1.54 0 1.92 1.166 1.92 2.61m-5.864-.06c0 2.713 1.583 4.304 3.987 4.304 2.607 0 3.858-1.575 3.858-4.216 0-2.8-1.69-4.216-4.004-4.216-2.461 0-3.841 1.564-3.841 4.128M793.876 150.648v1.403c.817.781 4.589 4.154 4.589 5.894 0 1.21-.614 1.608-1.588 1.608-1.051 0-1.63-.28-2.067-.47l-.626 1.371c.626.368 1.339.736 2.883.736 2.807 0 3.347-1.696 3.347-3.125 0-2.196-2.157-4.129-4.061-5.81h4.511v-1.607zM806.5 159.523c-2.085 0-2.184-2.135-2.184-3.773 0-1.753.246-3.595 2.097-3.595 2.024 0 2.125 2.006 2.125 3.772 0 1.534-.087 3.596-2.038 3.596m-.16-9.005c-3.132 0-4.005 2.4-4.005 5.188 0 2.728.903 5.457 4.252 5.457 3.334 0 3.93-2.745 3.93-5.162 0-3.097-1.077-5.484-4.177-5.484M814.48 150.5c-1.805 0-2.725.355-2.725.355l.38 1.593c.524-.148 1.267-.264 2.2-.264 1.164 0 1.947.28 1.947 1.4 0 1.207-.77 1.65-2.677 1.769v1.4c1.5.102 2.227.545 2.227 1.622 0 .795-.54 1.194-1.398 1.194-.959 0-1.82-.296-1.82-.296l-.536 1.385c.697.356 1.467.545 2.458.545 1.746 0 3.187-.825 3.187-2.579 0-1.429-.888-2.078-1.54-2.387 1.075-.384 2.05-1.224 2.05-2.669 0-2.446-1.79-3.068-3.754-3.068M823.985 159.523c-2.08 0-2.184-2.135-2.184-3.773 0-1.753.246-3.595 2.098-3.595 2.023 0 2.127 2.006 2.127 3.772 0 1.534-.09 3.596-2.04 3.596m-.158-9.005c-3.134 0-4.004 2.4-4.004 5.188 0 2.728.9 5.457 4.248 5.457 3.334 0 3.931-2.745 3.931-5.162 0-3.097-1.077-5.484-4.175-5.484M708.91 135.99c0 3.7 2.17 6.001 5.823 6.001 1.02 0 1.745-.134 2.502-.457l-.476-1.136c-.775.25-1.242.324-2.142.324-2.706 0-4.194-1.887-4.194-4.569 0-2.344 1.457-3.538 3.654-3.538.802 0 1.518.073 2.26.294l.258-1.192c-.99-.312-1.862-.397-2.925-.397-2.855 0-4.76 1.661-4.76 4.67M722.39 134.105l.44 4.244c-.088.014-.25.014-.392.014-1.925 0-3.118-2.416-3.118-4.465 0-.724.204-1.297.67-1.297.654 0 1.963 1.105 2.4 1.504m-4.498-.352c0 2.797 1.864 5.834 4.879 5.834.493 0 1.18-.044 1.586-.116l-.817-8.006h-1.426l.147 1.343c-1.004-.944-1.847-1.532-2.635-1.532-1.254 0-1.734 1.015-1.734 2.476M726.528 139.515h1.424l-.116-1.194c.802.662 1.75 1.4 2.81 1.4 1.077 0 1.471-.455 1.471-1.575 0-.268-.015-.548-.057-.872l-.613-5.808h-1.428l.6 5.512c.026.252.026.473.026.648 0 .504-.13.723-.523.723-.582 0-1.457-.483-2.417-1.267l-.597-5.616h-1.427zM737.868 134.105l.45 4.258c-.099.015-.29.015-.48.015-1.644.017-2.997-2.003-2.997-4.17 0-1.268.232-1.608.64-1.608.713 0 1.818.93 2.387 1.504m-4.454-.176c0 3.301 1.993 5.614 4.745 5.658.072 0 .216-.012.293-.012l.32 3.005h1.426l-1.166-11.114h-1.427l.147 1.343c-.918-.916-1.82-1.532-2.652-1.532-1.294 0-1.686 1.177-1.686 2.652M741.887 142.004l1.22 1.092 1.007-1.092-1.238-1.091zm.13-2.49h1.426l-.83-8.048h-1.423zM749.08 134.105l.45 4.258c-.1.015-.29.015-.48.015-1.645.017-2.998-2.003-2.998-4.17 0-1.268.232-1.608.638-1.608.715 0 1.82.93 2.39 1.504m-4.456-.176c0 3.301 1.991 5.614 4.744 5.658.074 0 .221-.012.295-.012l.315 3.005h1.428l-1.165-11.114h-1.427l.15 1.343c-.919-.916-1.822-1.532-2.653-1.532-1.294 0-1.687 1.177-1.687 2.652M756.691 134.105l.437 4.244c-.088.014-.247.014-.395.014-1.919 0-3.113-2.416-3.113-4.465 0-.724.203-1.297.67-1.297.653 0 1.964 1.105 2.401 1.504m-4.499-.352c0 2.797 1.865 5.834 4.878 5.834.497 0 1.18-.044 1.588-.116l-.817-8.006h-1.427l.146 1.343c-1.004-.944-1.85-1.532-2.634-1.532-1.254 0-1.734 1.015-1.734 2.476M760.505 132.94c0 .206 0 .412.03.664l.525 4.762h-1.165l.116 1.148h1.179l.162 1.651h1.41l-.16-1.65h2.328l-.1-1.149h-2.344l-.524-4.808c-.072-.737.13-.987.555-.987.42 0 1.12.178 1.686.441l.307-1.09a4.82 4.82 0 0 0-2.358-.634c-1.02 0-1.617.444-1.647 1.652M769.404 136.684c.65.25 1.017.633 1.017 1.047 0 .59-.423.825-.843.825-1.4 0-2.068-1.311-2.33-2.726zm-3.757-2.358c0 2.816 1.323 5.409 3.975 5.409 1.525 0 2.18-.912 2.18-1.93 0-1.267-1.134-1.888-2.254-2.287l-2.43-.884v-.34c0-1.161.216-1.753.844-1.753.726 0 1.586.356 2.46.825l.493-1.033c-.917-.543-1.89-1.045-3.247-1.045-1.627 0-2.02 1.519-2.02 3.038" style="fill:#001689;fill-opacity:1;fill-rule:nonzero;stroke:none" transform="matrix(1.92646 0 0 -1.92646 -1070.13 538.36)"/><path d="M702.175 260.482a1.753 1.753 0 0 1-1.303-1.19c-.02-.055-.031-.112-.044-.168l-4.066-15.856-4.676 17.214h-3.96l-4.707-17.243-3.895 15.784-.073.296a1.708 1.708 0 0 1-1.618 1.163h-2.958l5.929-21.807.098-.365c.006-.009.009-.013.009-.02a1.716 1.716 0 0 1 1.583-1.048h2.697l4.9 17.89 4.707-17.89h2.638c.708 0 1.315.428 1.579 1.037 0 .003.004.003.004.01l.103.386v.01l6.017 21.797zM713.198 240.531c.601 0 1.158.086 1.674.26.516.17.96.436 1.338.803.377.366.67.848.884 1.452.217.6.327 1.32.327 2.156v1.971c0 1.694-.384 2.898-1.146 3.605-.764.712-1.787 1.066-3.077 1.066s-2.316-.354-3.08-1.066c-.763-.707-1.147-1.91-1.147-3.605v-1.97c0-.838.111-1.557.325-2.157.214-.604.51-1.086.89-1.452a3.398 3.398 0 0 1 1.334-.803 5.206 5.206 0 0 1 1.678-.26m0-3.545c-1.269 0-2.414.183-3.434.547-1.022.365-1.894.891-2.61 1.58-.719.687-1.279 1.542-1.676 2.562-.396 1.02-.597 2.177-.597 3.464v2.096c0 1.31.201 2.471.597 3.481.397 1.01.957 1.856 1.675 2.547.717.685 1.59 1.21 2.611 1.577 1.02.366 2.165.548 3.434.548 1.243 0 2.385-.182 3.417-.548 1.03-.367 1.904-.892 2.625-1.577.721-.69 1.277-1.538 1.677-2.547.396-1.01.595-2.17.595-3.48v-2.097c0-1.287-.199-2.445-.595-3.464-.4-1.02-.956-1.875-1.677-2.562-.72-.689-1.596-1.215-2.625-1.58-1.032-.364-2.174-.547-3.417-.547M734.081 255.292c-.45.065-.9.097-1.356.097-1.269 0-2.29-.271-3.075-.806a5.862 5.862 0 0 1-1.888-2.158h-.06v2.577h-2.19a1.711 1.711 0 0 1-1.715-1.712v-16.048h2.36c.891 0 1.614.679 1.702 1.538v9.003a4.014 4.014 0 0 0 1.14 2.851c.361.359.783.633 1.262.825a4.211 4.211 0 0 0 1.56.287c.52 0 .948-.032 1.29-.096.347-.065.667-.16.97-.289l1.161 3.672a6.59 6.59 0 0 1-1.16.259M738.146 261.607a1.71 1.71 0 0 1-1.712-1.712v-22.653h2.348c.944 0 1.712.768 1.712 1.714v22.651zM754.611 244.786c0-.604-.098-1.17-.293-1.692a4.248 4.248 0 0 0-.818-1.389 3.749 3.749 0 0 0-1.322-.93c-.525-.227-1.123-.34-1.79-.34-1.183 0-2.08.415-2.694 1.24-.61.824-.916 1.992-.916 3.498v2c0 1.481.306 2.636.916 3.476.613.841 1.564 1.263 2.855 1.263.71 0 1.315-.113 1.825-.327.5-.215.922-.488 1.25-.822.336-.333.584-.708.742-1.129.163-.419.245-.828.245-1.239zm1.64 16.821a1.704 1.704 0 0 1-1.706-1.624v-6.495a3.96 3.96 0 0 1-.548.63 3.815 3.815 0 0 1-.918.613c-.378.18-.825.334-1.35.461-.533.134-1.146.197-1.857.197-1.07 0-2.049-.176-2.917-.532a6.328 6.328 0 0 1-2.238-1.513c-.623-.659-1.1-1.46-1.435-2.42-.33-.954-.5-2.036-.5-3.236v-3.13c0-2.405.563-4.27 1.69-5.592 1.13-1.318 2.828-1.98 5.11-1.98 1.077 0 2.074.18 2.996.53a3.93 3.93 0 0 1 2.098 1.824h.095v-2.098h2.124c.945 0 1.71.77 1.71 1.714v22.651z" style="fill:#231f20;fill-opacity:1;fill-rule:nonzero;stroke:none" transform="matrix(1.92646 0 0 -1.92646 -1070.13 538.36)"/><path d="M684.2 238.956a1.71 1.71 0 0 0-3.288-.667c0 .01-.004.013-.01.021a1.773 1.773 0 0 0-.099.366 1.71 1.71 0 0 0 3.305.831l.075-.299c.003-.028.003-.049.007-.076.006-.058.01-.119.01-.176M758.605 238.956a1.711 1.711 0 1 0-3.421 0 1.71 1.71 0 1 0 3.42 0M781.951 240.642h-9.384v6.805h10.19v3.356h-10.19v6.26h9.164c.907 0 1.65.7 1.702 1.59v1.828h-13.252a1.709 1.709 0 0 1-1.71-1.71v-19.84c0-.945.763-1.71 1.71-1.71h13.482v1.71c0 .944-.768 1.71-1.712 1.71M803.212 239.922l-.47.77v.007l-5.12 8.459 4.62 7.54.942 1.535 1.378 2.248h-3.421a2.046 2.046 0 0 1-1.7-.907l-.167-.301-4.137-7.372-4.03 7.447-.051.1a2.05 2.05 0 0 1-1.78 1.033h-3.75l6.612-11.096-4.97-8.4-.858-1.453-1.363-2.31h3.42c.74 0 1.395.387 1.76.97a.051.051 0 0 1 .006.022l.095.17c.009.006.009.009.009.009l4.516 8.216 4.68-8.26c.003-.006.008-.01.008-.013l.067-.113s0-.006.003-.01a2.062 2.062 0 0 1 1.76-.991h3.577zM819.523 253.223c0-1.352-.388-2.293-1.162-2.81-.774-.515-1.838-.77-3.193-.77h-4.098v7.386h4.449c.583 0 1.12-.047 1.618-.145a3.387 3.387 0 0 0 1.272-.517c.352-.248.629-.575.82-.987.196-.403.294-.931.294-1.577zm3.69 3.259a5.456 5.456 0 0 1-1.434 2.107c-.643.596-1.47 1.06-2.464 1.392-1.004.335-2.203.5-3.601.5h-7.064a1.71 1.71 0 0 1-1.71-1.71v-21.55h2.42c.945 0 1.71.765 1.71 1.71v7.226h4.644c1.357 0 2.528.188 3.516.566.99.378 1.818.878 2.486 1.517a6.015 6.015 0 0 1 1.485 2.223c.32.853.482 1.75.482 2.696v.676a7.28 7.28 0 0 1-.47 2.647M835.099 240.642c.793 0 1.536.102 2.226.307a4.209 4.209 0 0 1 1.805 1.079c.514.516.919 1.218 1.209 2.098.289.882.434 1.988.434 3.32v2.809c0 1.333-.145 2.44-.434 3.322-.29.88-.695 1.58-1.21 2.095a4.281 4.281 0 0 1-1.804 1.085 7.894 7.894 0 0 1-2.226.305 7.759 7.759 0 0 1-2.196-.305 4.285 4.285 0 0 1-1.806-1.085c-.517-.515-.926-1.214-1.225-2.095-.301-.881-.453-1.99-.453-3.322v-2.808c0-1.333.152-2.44.453-3.321.299-.88.708-1.582 1.225-2.098a4.212 4.212 0 0 1 1.806-1.08 7.653 7.653 0 0 1 2.196-.306m0 20.19c1.31 0 2.562-.186 3.758-.562a8.524 8.524 0 0 0 3.146-1.774c.9-.806 1.618-1.844 2.14-3.116.529-1.265.794-2.804.794-4.61v-3.836c0-1.83-.265-3.383-.793-4.664-.523-1.277-1.234-2.316-2.128-3.112a8.301 8.301 0 0 0-3.131-1.741c-1.19-.368-2.458-.546-3.786-.546-1.334 0-2.6.178-3.792.546a8.355 8.355 0 0 0-3.131 1.74c-.89.797-1.601 1.836-2.127 3.113-.532 1.28-.79 2.834-.79 4.664v3.836c0 1.806.258 3.345.79 4.61.526 1.272 1.243 2.31 2.143 3.116a8.486 8.486 0 0 0 3.15 1.774c1.19.376 2.442.563 3.757.563M867.19 240.614h-9.475l6.845 6.904c1.095 1.096 1.93 2.221 2.495 3.37a8.074 8.074 0 0 1 .856 3.63v.324c0 .795-.148 1.553-.438 2.271a4.976 4.976 0 0 1-1.355 1.904c-.612.548-1.388.985-2.335 1.31-.945.323-2.077.48-3.39.48-1.183 0-2.206-.157-3.08-.48-.869-.325-1.624-.725-2.257-1.212a7.545 7.545 0 0 1-1.58-1.596 18.617 18.617 0 0 1-1.05-1.614l3.096-2.033c.39.667.78 1.215 1.177 1.65.396.427.8.76 1.212.996.412.24.821.397 1.24.482.421.085.85.13 1.273.13 1.205 0 2.065-.252 2.566-.756.51-.507.761-1.07.761-1.697v-.254c0-.325-.025-.66-.066-1.004a3.686 3.686 0 0 0-.355-1.127c-.193-.408-.486-.868-.869-1.386-.387-.518-.916-1.118-1.583-1.808l-7.83-8.062-.249-.255a1.63 1.63 0 0 1-.116-.157 1.83 1.83 0 0 1-.167-.303 1.954 1.954 0 0 1-.185-.845v-2.279h16.452v1.712a1.71 1.71 0 0 1-1.593 1.705M883.035 250.683c0 1.33-.126 2.406-.37 3.225-.246.814-.573 1.444-.97 1.884-.4.44-.862.74-1.385.89a5.934 5.934 0 0 1-3.229 0c-.528-.15-1-.452-1.422-.905-.418-.45-.755-1.086-1.014-1.905-.255-.816-.386-1.88-.386-3.19v-3.68c0-1.334.135-2.41.406-3.223.264-.82.613-1.452 1.045-1.906.433-.451.915-.752 1.45-.903a6.01 6.01 0 0 1 1.618-.226c.557 0 1.095.076 1.608.226.52.15.972.447 1.36.888.383.44.698 1.07.936 1.887.231.816.353 1.903.353 3.258zm4.164-3.648c0-3.314-.702-5.838-2.102-7.581-1.398-1.744-3.509-2.616-6.319-2.616-2.779 0-4.916.885-6.424 2.647-1.504 1.765-2.256 4.283-2.256 7.55v3.612c0 3.269.747 5.78 2.245 7.534 1.491 1.752 3.605 2.627 6.334 2.627 2.756 0 4.862-.875 6.325-2.627 1.461-1.753 2.197-4.265 2.197-7.534zM902.898 247.519c-.729.944-1.869 1.558-3.42 1.84.667.253 1.211.59 1.646.999.433.409.77.857 1.032 1.337.258.484.437.99.531 1.52a7.73 7.73 0 0 1 .146 1.463v.324c0 .858-.174 1.65-.514 2.373a5.25 5.25 0 0 1-1.453 1.838c-.62.503-1.379.897-2.26 1.177-.88.28-1.869.418-2.968.418-1.677 0-3.055-.305-4.126-.92a9.188 9.188 0 0 1-2.775-2.434l2.807-2.192a7.716 7.716 0 0 0 1.69 1.388c.614.36 1.42.548 2.404.548.966 0 1.735-.2 2.307-.597.573-.4.856-1.035.856-1.923v-.255c0-.497-.048-.953-.14-1.375a2.442 2.442 0 0 0-.536-1.06c-.258-.293-.618-.516-1.08-.677-.462-.163-1.06-.245-1.793-.245h-1.25a1.703 1.703 0 0 1-1.523-1.475v-2.072h3.125c1.488 0 2.565-.265 3.226-.793.67-.527 1.004-1.36 1.004-2.498v-.42c0-1.03-.347-1.837-1.033-2.42-.686-.58-1.765-.867-3.228-.867-.47 0-.913.027-1.32.094a6.537 6.537 0 0 0-1.258.34 8.136 8.136 0 0 0-1.34.658c-.463.279-.973.624-1.533 1.035l-2.03-3.226a11.453 11.453 0 0 1 3.531-1.954 12.31 12.31 0 0 1 3.921-.63c1.416 0 2.663.193 3.722.567 1.065.378 1.951.878 2.651 1.5a5.951 5.951 0 0 1 1.56 2.163c.347.818.517 1.666.517 2.549v.48c0 1.336-.366 2.478-1.096 3.422M918.96 250.683c0 1.33-.125 2.406-.377 3.225-.246.814-.566 1.444-.963 1.884-.4.44-.862.74-1.391.89a5.94 5.94 0 0 1-3.226 0c-.522-.15-.997-.452-1.419-.905-.419-.45-.759-1.086-1.013-1.905-.258-.816-.39-1.88-.39-3.19v-3.68c0-1.334.134-2.41.406-3.223.268-.82.613-1.452 1.048-1.906.428-.451.915-.752 1.45-.903a5.982 5.982 0 0 1 1.611-.226 5.74 5.74 0 0 1 1.615.226 2.83 2.83 0 0 1 1.353.888c.394.44.701 1.07.938 1.887.236.816.358 1.903.358 3.258zm4.154-3.648c0-3.314-.695-5.838-2.092-7.581-1.401-1.744-3.506-2.616-6.326-2.616-2.772 0-4.912.885-6.416 2.647-1.505 1.765-2.262 4.283-2.262 7.55v3.612c0 3.269.752 5.78 2.246 7.534 1.495 1.752 3.606 2.627 6.335 2.627 2.757 0 4.862-.875 6.325-2.627 1.464-1.753 2.19-4.265 2.19-7.534zM679.562 208.249h5.248c1.6 0 2.782.327 3.544.983.762.653 1.143 1.621 1.143 2.908v.666c0 .66-.085 1.239-.255 1.746-.17.5-.463.926-.878 1.266-.413.34-.957.597-1.634.77-.677.17-1.526.255-2.54.255h-4.629zm0 18.028v-7.656h4.6c1.41 0 2.501.261 3.272.783.773.525 1.156 1.467 1.156 2.835v.542c0 1.284-.372 2.191-1.111 2.712-.746.525-1.916.784-3.515.784zm-1.945 1.838h6.489c4.305 0 6.46-1.768 6.46-5.304v-.634c0-.482-.057-.95-.166-1.401a4.196 4.196 0 0 0-.551-1.252 3.873 3.873 0 0 0-1.017-1.01c-.422-.291-.935-.516-1.54-.677 1.244-.199 2.25-.703 3.034-1.507.78-.806 1.171-1.958 1.171-3.468v-.752c0-1.791-.528-3.191-1.591-4.205-1.065-1.014-2.707-1.522-4.93-1.522h-7.36zM702.108 207.95c1.77 0 3.09.603 3.965 1.81.875 1.205 1.312 3.163 1.312 5.877v12.478h1.95v-13.26c0-3.019-.637-5.238-1.906-6.665-1.27-1.426-3.046-2.139-5.32-2.139-2.298 0-4.073.713-5.335 2.14-1.259 1.426-1.89 3.645-1.89 6.663v13.261h1.947v-12.478c0-2.714.44-4.672 1.312-5.878.875-1.206 2.196-1.809 3.965-1.809M720.115 208.01c.786 0 1.498.1 2.13.302.63.2 1.165.475 1.605.829.444.35.781.754 1.004 1.204a3.1 3.1 0 0 1 .34 1.403v.633c0 .5-.076.953-.226 1.357-.152.402-.425.768-.819 1.1-.396.33-.934.633-1.624.903-.685.27-1.576.539-2.665.8-1.186.283-2.178.608-2.977.979-.802.373-1.44.796-1.919 1.268-.482.472-.819.993-1.014 1.566a5.66 5.66 0 0 0-.299 1.886v.692c0 .82.167 1.572.494 2.247.327.672.786 1.25 1.381 1.734.596.482 1.297.856 2.118 1.126.82.275 1.706.409 2.67.409 1.371 0 2.545-.175 3.524-.528.978-.352 1.815-.79 2.514-1.312l-.935-1.718a7.817 7.817 0 0 1-2.256 1.192c-.847.29-1.794.438-2.848.438a6.508 6.508 0 0 1-1.78-.242 4.66 4.66 0 0 1-1.483-.708 3.692 3.692 0 0 1-1.014-1.13 2.977 2.977 0 0 1-.38-1.508v-.604c0-.461.078-.884.24-1.265.16-.381.42-.724.788-1.026.366-.3.86-.582 1.483-.841.62-.263 1.39-.502 2.312-.723 1.317-.324 2.408-.672 3.274-1.041.865-.375 1.554-.8 2.06-1.281.507-.484.866-1.026 1.073-1.63.206-.602.312-1.295.312-2.08v-.693c0-.783-.163-1.516-.48-2.201a5.577 5.577 0 0 0-1.37-1.811c-.59-.52-1.328-.928-2.2-1.234-.875-.3-1.859-.451-2.952-.451-1.35 0-2.617.216-3.795.648a10.664 10.664 0 0 0-3.115 1.764l1.014 1.777c1.015-.783 2.01-1.35 2.98-1.702.966-.352 1.913-.527 2.835-.527M734.28 214.974h7.365l-1.975 5.88c-.132.36-.252.713-.366 1.053-.113.342-.239.72-.368 1.13-.132.415-.273.875-.425 1.387-.147.513-.327 1.12-.535 1.825a62.764 62.764 0 0 0-.931-3.212c-.132-.41-.25-.788-.369-1.13-.109-.34-.232-.693-.365-1.053zm12.36-8.591h-2.115l-2.26 6.753h-8.606l-2.317-6.753h-2.029l7.565 21.733h2.228zM749.605 228.115h2.34l9.344-17c.168-.304.318-.598.45-.89l.507-1.13v19.02h1.89v-21.732h-2.34l-9.37 17.062c-.173.322-.32.61-.453.874-.131.26-.291.62-.476 1.083v-19.019h-1.892zM768.992 208.674h2.48l-2.027-6.785h-1.64zM788.77 218.832l9.003-12.449h-2.539l-7.874 10.913-2.593-2.867v-8.046h-1.976v21.732h1.976v-10.97l9.818 10.97h2.654zM807.259 207.95c1.825 0 3.267.676 4.33 2.035 1.064 1.356 1.596 3.34 1.596 5.951v2.623c0 2.614-.532 4.6-1.596 5.955-1.063 1.357-2.505 2.036-4.33 2.036-1.825 0-3.27-.679-4.334-2.036-1.063-1.356-1.592-3.34-1.592-5.955v-2.623c0-2.612.529-4.595 1.592-5.95 1.064-1.36 2.509-2.036 4.334-2.036m0 20.498c1.262 0 2.379-.227 3.357-.68a6.767 6.767 0 0 0 2.487-1.944c.676-.844 1.189-1.863 1.548-3.059.358-1.196.535-2.537.535-4.022v-2.986c0-1.489-.177-2.829-.535-4.025-.36-1.196-.872-2.214-1.548-3.058a6.846 6.846 0 0 0-2.487-1.946c-.978-.453-2.095-.677-3.357-.677s-2.38.224-3.361.677a6.857 6.857 0 0 0-2.483 1.946c-.677.844-1.196 1.862-1.552 3.058-.355 1.196-.535 2.536-.535 4.025v2.986c0 1.485.173 2.826.52 4.022.349 1.196.862 2.215 1.539 3.06a6.715 6.715 0 0 0 2.498 1.943c.988.453 2.112.68 3.374.68M821.338 226.218v-8.56h4.459c1.769 0 3.043.365 3.823 1.098.783.733 1.174 1.765 1.174 3.09v.303c0 1.266-.384 2.259-1.145 2.983-.762.724-1.942 1.086-3.54 1.086zm5.84-10.431a2.516 2.516 0 0 0-.377-.03h-5.463v-9.374h-1.974v21.732h7.025c1.016 0 1.919-.145 2.709-.436a5.746 5.746 0 0 0 2.02-1.234 5.2 5.2 0 0 0 1.252-1.886 6.38 6.38 0 0 0 .429-2.351v-.453c0-1.324-.331-2.467-.991-3.42-.655-.957-1.552-1.652-2.682-2.096l4.095-9.856h-2.118zM849.389 228.115v-1.866h-10.271v-7.777h9.68v-1.87h-9.68v-8.353h10.469v-1.866h-12.445v21.732zM856.98 214.974h7.367l-1.976 5.88c-.133.36-.252.713-.366 1.053a82.655 82.655 0 0 0-.79 2.517c-.147.513-.333 1.12-.535 1.825a105.99 105.99 0 0 0-.51-1.825 62.764 62.764 0 0 0-.793-2.517c-.113-.34-.232-.693-.364-1.053zm12.36-8.591h-2.114l-2.256 6.753h-8.61l-2.314-6.753h-2.032l7.566 21.733h2.227z" style="fill:#231f20;fill-opacity:1;fill-rule:nonzero;stroke:none" transform="matrix(1.92646 0 0 -1.92646 -1070.13 538.36)"/><path d="M587.203 275.106a4.35 4.35 0 1 0 8.7 0 4.35 4.35 0 0 0-8.7 0" style="fill:#0047bb;fill-opacity:1;fill-rule:nonzero;stroke:none" transform="matrix(1.92646 0 0 -1.92646 -1070.13 538.36)"/><path d="M591.552 257.548c-6.854 0-13.707 2.608-18.925 7.828a4.325 4.325 0 0 0 0 6.112 4.323 4.323 0 0 0 6.112 0c7.064-7.064 18.563-7.064 25.63 0a4.323 4.323 0 0 0 6.112 0 4.325 4.325 0 0 0 0-6.112c-5.218-5.22-12.072-7.828-18.93-7.828M627.644 261.755c0-2.4-1.947-4.346-4.35-4.346a4.347 4.347 0 1 0 0 8.696 4.348 4.348 0 0 0 4.35-4.35" style="fill:#0047bb;fill-opacity:1;fill-rule:nonzero;stroke:none" transform="matrix(1.92646 0 0 -1.92646 -1070.13 538.36)"/><path d="M607.425 264.11a4.3 4.3 0 0 0-3.056 1.266 4.32 4.32 0 0 0 0 6.112c10.436 10.435 27.416 10.435 37.85 0a4.318 4.318 0 0 0 0-6.112 4.318 4.318 0 0 0-6.11 0c-7.068 7.062-18.563 7.062-25.628 0a4.303 4.303 0 0 0-3.056-1.267" style="fill:#0047bb;fill-opacity:1;fill-rule:nonzero;stroke:none" transform="matrix(1.92646 0 0 -1.92646 -1070.13 538.36)"/><path d="M587.203 205.727a4.348 4.348 0 1 0 8.7-.003 4.348 4.348 0 0 0-8.7.003" style="fill:#3db5e6;fill-opacity:1;fill-rule:nonzero;stroke:none" transform="matrix(1.92646 0 0 -1.92646 -1070.13 538.36)"/><path d="M591.552 188.169c-6.854 0-13.707 2.606-18.925 7.826a4.325 4.325 0 0 0 0 6.112 4.32 4.32 0 0 0 6.112 0c7.064-7.064 18.563-7.064 25.63 0a4.32 4.32 0 0 0 6.112 0 4.325 4.325 0 0 0 0-6.112c-5.218-5.218-12.072-7.826-18.93-7.826M627.644 192.379a4.35 4.35 0 1 0-8.699-.004 4.35 4.35 0 0 0 8.699.004" style="fill:#3db5e6;fill-opacity:1;fill-rule:nonzero;stroke:none" transform="matrix(1.92646 0 0 -1.92646 -1070.13 538.36)"/><path d="M607.425 194.73a4.32 4.32 0 0 0-3.056 7.378c10.436 10.435 27.416 10.435 37.85.001a4.319 4.319 0 0 0 0-6.113 4.318 4.318 0 0 0-6.11 0c-7.068 7.065-18.563 7.063-25.628 0a4.31 4.31 0 0 0-3.056-1.267" style="fill:#3db5e6;fill-opacity:1;fill-rule:nonzero;stroke:none" transform="matrix(1.92646 0 0 -1.92646 -1070.13 538.36)"/><path d="M603.073 233.741a4.35 4.35 0 1 0 8.698.002 4.35 4.35 0 0 0-8.698-.002M643.51 218.47a4.346 4.346 0 1 0-8.692 0 4.346 4.346 0 1 0 8.693 0" style="fill:#bac7d8;fill-opacity:1;fill-rule:nonzero;stroke:none" transform="matrix(1.92646 0 0 -1.92646 -1070.13 538.36)"/><path d="M623.295 220.823a4.305 4.305 0 0 0-3.056 1.266 4.32 4.32 0 0 0 0 6.114c10.435 10.434 27.416 10.434 37.85 0a4.32 4.32 0 0 0 0-6.114 4.324 4.324 0 0 0-6.11 0c-7.065 7.067-18.561 7.067-25.628 0a4.312 4.312 0 0 0-3.056-1.266M580.031 218.47a4.344 4.344 0 0 0-4.346-4.346 4.348 4.348 0 1 0 0 8.695 4.345 4.345 0 0 0 4.346-4.35" style="fill:#bac7d8;fill-opacity:1;fill-rule:nonzero;stroke:none" transform="matrix(1.92646 0 0 -1.92646 -1070.13 538.36)"/><path d="M559.813 220.823a4.322 4.322 0 0 0-3.056 7.38c10.436 10.434 27.416 10.434 37.854 0a4.326 4.326 0 0 0 0-6.114 4.324 4.324 0 0 0-6.111 0c-7.068 7.067-18.563 7.067-25.631 0a4.305 4.305 0 0 0-3.056-1.266" style="fill:#bac7d8;fill-opacity:1;fill-rule:nonzero;stroke:none" transform="matrix(1.92646 0 0 -1.92646 -1070.13 538.36)"/><path d="M607.422 214.263c-6.854 0-13.708 2.608-18.922 7.826a4.312 4.312 0 0 0 0 6.112 4.317 4.317 0 0 0 6.11 0c7.069-7.064 18.56-7.062 25.629.002a4.321 4.321 0 0 0 6.112-.002 4.32 4.32 0 0 0 0-6.112c-5.218-5.218-12.075-7.826-18.93-7.826" style="fill:#bac7d8;fill-opacity:1;fill-rule:nonzero;stroke:none" transform="matrix(1.92646 0 0 -1.92646 -1070.13 538.36)"/><path d="M571.333 249.01c0 2.4 1.948 4.35 4.35 4.35a4.348 4.348 0 0 0 0-8.696 4.349 4.349 0 0 0-4.35 4.347" style="fill:#00adbc;fill-opacity:1;fill-rule:nonzero;stroke:none" transform="matrix(1.92646 0 0 -1.92646 -1070.13 538.36)"/><path d="M575.683 231.454c-6.854 0-13.711 2.608-18.926 7.826a4.32 4.32 0 0 0 0 6.112 4.32 4.32 0 0 0 6.112 0c7.064-7.065 18.563-7.062 25.63 0a4.318 4.318 0 0 0 6.112 0 4.323 4.323 0 0 0 0-6.112c-5.22-5.218-12.074-7.826-18.928-7.826M634.818 249.01a4.347 4.347 0 1 0 8.692 0 4.346 4.346 0 1 0-8.692 0" style="fill:#00adbc;fill-opacity:1;fill-rule:nonzero;stroke:none" transform="matrix(1.92646 0 0 -1.92646 -1070.13 538.36)"/><path d="M639.165 231.454c-6.857 0-13.712 2.608-18.926 7.826a4.318 4.318 0 0 0 0 6.112 4.32 4.32 0 0 0 6.112 0c7.064-7.065 18.56-7.062 25.627 0a4.32 4.32 0 0 0 6.112 0 4.318 4.318 0 0 0 0-6.112c-5.218-5.218-12.071-7.826-18.925-7.826" style="fill:#00adbc;fill-opacity:1;fill-rule:nonzero;stroke:none" transform="matrix(1.92646 0 0 -1.92646 -1070.13 538.36)"/><path d="M591.552 238.015a4.296 4.296 0 0 0-3.052 1.266 4.312 4.312 0 0 0 0 6.112c10.432 10.434 27.415 10.436 37.85.004a4.324 4.324 0 0 0-6.113-6.116c-7.066 7.066-18.558 7.064-25.626 0a4.31 4.31 0 0 0-3.06-1.266" style="fill:#00adbc;fill-opacity:1;fill-rule:nonzero;stroke:none" transform="matrix(1.92646 0 0 -1.92646 -1070.13 538.36)"/></svg>