<svg width="166" height="166" viewBox="0 0 166 166" fill="none" xmlns="http://www.w3.org/2000/svg">
<path d="M83.0724 151.897C73.3144 151.897 64.2452 150.146 55.8648 146.645C47.4844 143.143 40.1946 138.293 33.9954 132.094C27.7962 125.895 22.9459 118.605 19.4445 110.224C15.9431 101.844 14.1924 92.7747 14.1924 83.0167C14.1924 73.3735 15.9431 64.3617 19.4445 55.9813C22.9459 47.6009 27.7962 40.3111 33.9954 34.1119C40.1946 27.9127 47.4844 23.0337 55.8648 19.4749C64.2452 15.9161 73.3144 14.1367 83.0724 14.1367C91.6824 14.1367 99.7184 15.5143 107.18 18.2695C114.642 21.0247 121.358 24.8131 127.328 29.6347L119.923 37.0393C114.872 33.0213 109.247 29.9217 103.048 27.7405C96.8484 25.5593 90.19 24.4687 83.0724 24.4687C66.4264 24.4687 52.5069 30.0652 41.3139 41.2582C30.1209 52.4512 24.5244 66.3707 24.5244 83.0167C24.5244 99.6627 30.1209 113.582 41.3139 124.775C52.5069 135.968 66.4264 141.565 83.0724 141.565C87.32 141.565 91.4241 141.163 95.3847 140.359C99.3453 139.556 103.162 138.35 106.836 136.743L114.585 144.664C109.878 146.96 104.884 148.74 99.6036 150.003C94.3228 151.265 88.8124 151.897 83.0724 151.897ZM133.01 136.399V115.735H112.346V105.403H133.01V84.7387H143.342V105.403H164.006V115.735H143.342V136.399H133.01ZM72.9126 114.357L44.4996 85.7719L52.2486 78.0229L72.9126 98.6869L144.203 27.3961L152.125 35.1451L72.9126 114.357Z" fill="black"/>
</svg>
