<svg width="198" height="100" viewBox="0 0 198 100" fill="none" xmlns="http://www.w3.org/2000/svg">
<g clip-path="url(#clip0_235_176)">
<mask id="path-1-outside-1_235_176" maskUnits="userSpaceOnUse" x="11" y="13" width="174" height="74" fill="black">
<rect fill="white" x="11" y="13" width="174" height="74"/>
<path d="M40.6959 52.88H50.0059V67.65H40.6959V52.88ZM45.3859 19.7C59.2459 19.7 69.6059 26.77 69.6059 37.55C69.6059 48.47 59.2459 55.47 45.3859 55.47C31.5259 55.47 21.1659 48.47 21.1659 37.55C21.1659 26.77 31.5259 19.7 45.3859 19.7ZM45.3859 27.05C36.4959 27.05 30.3359 30.97 30.3359 37.55C30.3359 44.27 36.4959 48.12 45.3859 48.12C54.2759 48.12 60.4359 44.27 60.4359 37.55C60.4359 30.97 54.2759 27.05 45.3859 27.05ZM16.1259 66.18H74.7859V73.74H16.1259V66.18ZM80.4504 54.42H139.18V61.77H80.4504V54.42ZM93.9604 58.27H103.34V81.23H93.9604V58.27ZM116.36 58.27H125.74V81.23H116.36V58.27ZM87.1704 18.37H132.39V37.34H96.7604V47.42H87.3104V30.48H122.94V25.79H87.1704V18.37ZM87.3104 42.45H134V49.8H87.3104V42.45ZM152.46 75.6463C150.82 75.6463 149.411 75.0663 148.235 73.9062C147.075 72.7296 146.494 71.321 146.494 69.6804C146.494 68.0563 147.075 66.6643 148.235 65.5043C149.411 64.3442 150.82 63.7642 152.46 63.7642C154.051 63.7642 155.443 64.3442 156.637 65.5043C157.83 66.6643 158.426 68.0563 158.426 69.6804C158.426 70.7741 158.145 71.7768 157.581 72.6882C157.034 73.5831 156.313 74.304 155.419 74.8509C154.524 75.3812 153.538 75.6463 152.46 75.6463ZM173.31 75.6463C171.669 75.6463 170.261 75.0663 169.084 73.9062C167.924 72.7296 167.344 71.321 167.344 69.6804C167.344 68.0563 167.924 66.6643 169.084 65.5043C170.261 64.3442 171.669 63.7642 173.31 63.7642C174.901 63.7642 176.293 64.3442 177.486 65.5043C178.679 66.6643 179.276 68.0563 179.276 69.6804C179.276 70.7741 178.994 71.7768 178.431 72.6882C177.884 73.5831 177.163 74.304 176.268 74.8509C175.373 75.3812 174.387 75.6463 173.31 75.6463Z"/>
</mask>
<path d="M40.6959 52.88H50.0059V67.65H40.6959V52.88ZM45.3859 19.7C59.2459 19.7 69.6059 26.77 69.6059 37.55C69.6059 48.47 59.2459 55.47 45.3859 55.47C31.5259 55.47 21.1659 48.47 21.1659 37.55C21.1659 26.77 31.5259 19.7 45.3859 19.7ZM45.3859 27.05C36.4959 27.05 30.3359 30.97 30.3359 37.55C30.3359 44.27 36.4959 48.12 45.3859 48.12C54.2759 48.12 60.4359 44.27 60.4359 37.55C60.4359 30.97 54.2759 27.05 45.3859 27.05ZM16.1259 66.18H74.7859V73.74H16.1259V66.18ZM80.4504 54.42H139.18V61.77H80.4504V54.42ZM93.9604 58.27H103.34V81.23H93.9604V58.27ZM116.36 58.27H125.74V81.23H116.36V58.27ZM87.1704 18.37H132.39V37.34H96.7604V47.42H87.3104V30.48H122.94V25.79H87.1704V18.37ZM87.3104 42.45H134V49.8H87.3104V42.45ZM152.46 75.6463C150.82 75.6463 149.411 75.0663 148.235 73.9062C147.075 72.7296 146.494 71.321 146.494 69.6804C146.494 68.0563 147.075 66.6643 148.235 65.5043C149.411 64.3442 150.82 63.7642 152.46 63.7642C154.051 63.7642 155.443 64.3442 156.637 65.5043C157.83 66.6643 158.426 68.0563 158.426 69.6804C158.426 70.7741 158.145 71.7768 157.581 72.6882C157.034 73.5831 156.313 74.304 155.419 74.8509C154.524 75.3812 153.538 75.6463 152.46 75.6463ZM173.31 75.6463C171.669 75.6463 170.261 75.0663 169.084 73.9062C167.924 72.7296 167.344 71.321 167.344 69.6804C167.344 68.0563 167.924 66.6643 169.084 65.5043C170.261 64.3442 171.669 63.7642 173.31 63.7642C174.901 63.7642 176.293 64.3442 177.486 65.5043C178.679 66.6643 179.276 68.0563 179.276 69.6804C179.276 70.7741 178.994 71.7768 178.431 72.6882C177.884 73.5831 177.163 74.304 176.268 74.8509C175.373 75.3812 174.387 75.6463 173.31 75.6463Z" fill="#FF008A"/>
<path d="M40.6959 52.88V47.88C37.9344 47.88 35.6959 50.1186 35.6959 52.88H40.6959ZM50.0059 52.88H55.0059C55.0059 50.1186 52.7673 47.88 50.0059 47.88V52.88ZM50.0059 67.65V72.65C52.7673 72.65 55.0059 70.4114 55.0059 67.65H50.0059ZM40.6959 67.65H35.6959C35.6959 70.4114 37.9344 72.65 40.6959 72.65V67.65ZM16.1259 66.18V61.18C13.3644 61.18 11.1259 63.4186 11.1259 66.18H16.1259ZM74.7859 66.18H79.7859C79.7859 63.4186 77.5473 61.18 74.7859 61.18V66.18ZM74.7859 73.74V78.74C77.5473 78.74 79.7859 76.5014 79.7859 73.74H74.7859ZM16.1259 73.74H11.1259C11.1259 76.5014 13.3644 78.74 16.1259 78.74V73.74ZM40.6959 57.88H50.0059V47.88H40.6959V57.88ZM45.0059 52.88V67.65H55.0059V52.88H45.0059ZM50.0059 62.65H40.6959V72.65H50.0059V62.65ZM45.6959 67.65V52.88H35.6959V67.65H45.6959ZM45.3859 24.7C51.5243 24.7 56.4865 26.2726 59.7701 28.6389C62.9503 30.9307 64.6059 33.9568 64.6059 37.55H74.6059C74.6059 30.3632 71.0814 24.4643 65.6166 20.5261C60.2552 16.6624 53.1074 14.7 45.3859 14.7V24.7ZM64.6059 37.55C64.6059 41.2311 62.9343 44.2683 59.7701 46.5486C56.4935 48.9098 51.5351 50.47 45.3859 50.47V60.47C53.0966 60.47 60.2482 58.5302 65.6166 54.6614C71.0974 50.7117 74.6059 44.7889 74.6059 37.55H64.6059ZM45.3859 50.47C39.2366 50.47 34.2782 48.9098 31.0016 46.5486C27.8374 44.2683 26.1659 41.2311 26.1659 37.55H16.1659C16.1659 44.7889 19.6743 50.7117 25.1551 54.6614C30.5235 58.5302 37.6751 60.47 45.3859 60.47V50.47ZM26.1659 37.55C26.1659 33.9568 27.8214 30.9307 31.0016 28.6389C34.2852 26.2726 39.2474 24.7 45.3859 24.7V14.7C37.6643 14.7 30.5165 16.6624 25.1551 20.5261C19.6903 24.4643 16.1659 30.3632 16.1659 37.55H26.1659ZM45.3859 22.05C40.2884 22.05 35.445 23.1623 31.7159 25.6976C27.8172 28.3482 25.3359 32.4624 25.3359 37.55H35.3359C35.3359 36.0576 35.9345 34.9217 37.3383 33.9674C38.9117 32.8977 41.5933 32.05 45.3859 32.05V22.05ZM25.3359 37.55C25.3359 42.6764 27.7897 46.8206 31.7159 49.4899C35.456 52.0326 40.3065 53.12 45.3859 53.12V43.12C41.5752 43.12 38.9007 42.2824 37.3383 41.2201C35.962 40.2844 35.3359 39.1435 35.3359 37.55H25.3359ZM45.3859 53.12C50.4652 53.12 55.3157 52.0326 59.0558 49.4899C62.982 46.8206 65.4359 42.6764 65.4359 37.55H55.4359C55.4359 39.1435 54.8097 40.2844 53.4334 41.2201C51.871 42.2824 49.1965 43.12 45.3859 43.12V53.12ZM65.4359 37.55C65.4359 32.4624 62.9545 28.3482 59.0558 25.6976C55.3267 23.1623 50.4833 22.05 45.3859 22.05V32.05C49.1784 32.05 51.86 32.8977 53.4334 33.9674C54.8372 34.9217 55.4359 36.0576 55.4359 37.55H65.4359ZM16.1259 71.18H74.7859V61.18H16.1259V71.18ZM69.7859 66.18V73.74H79.7859V66.18H69.7859ZM74.7859 68.74H16.1259V78.74H74.7859V68.74ZM21.1259 73.74V66.18H11.1259V73.74H21.1259ZM80.4504 54.42V49.42C77.689 49.42 75.4504 51.6586 75.4504 54.42H80.4504ZM139.18 54.42H144.18C144.18 51.6586 141.942 49.42 139.18 49.42V54.42ZM139.18 61.77V66.77C141.942 66.77 144.18 64.5314 144.18 61.77H139.18ZM80.4504 61.77H75.4504C75.4504 64.5314 77.689 66.77 80.4504 66.77V61.77ZM93.9604 58.27V53.27C91.199 53.27 88.9604 55.5086 88.9604 58.27H93.9604ZM103.34 58.27H108.34C108.34 55.5086 106.102 53.27 103.34 53.27V58.27ZM103.34 81.23V86.23C106.102 86.23 108.34 83.9914 108.34 81.23H103.34ZM93.9604 81.23H88.9604C88.9604 83.9914 91.199 86.23 93.9604 86.23V81.23ZM116.36 58.27V53.27C113.599 53.27 111.36 55.5086 111.36 58.27H116.36ZM125.74 58.27H130.74C130.74 55.5086 128.502 53.27 125.74 53.27V58.27ZM125.74 81.23V86.23C128.502 86.23 130.74 83.9914 130.74 81.23H125.74ZM116.36 81.23H111.36C111.36 83.9914 113.599 86.23 116.36 86.23V81.23ZM87.1704 18.37V13.37C84.409 13.37 82.1704 15.6086 82.1704 18.37H87.1704ZM132.39 18.37H137.39C137.39 15.6086 135.152 13.37 132.39 13.37V18.37ZM132.39 37.34V42.34C135.152 42.34 137.39 40.1014 137.39 37.34H132.39ZM96.7604 37.34V32.34C93.999 32.34 91.7604 34.5786 91.7604 37.34H96.7604ZM96.7604 47.42V52.42C99.5218 52.42 101.76 50.1814 101.76 47.42H96.7604ZM87.3104 47.42H82.3104C82.3104 50.1814 84.549 52.42 87.3104 52.42V47.42ZM87.3104 30.48V25.48C84.549 25.48 82.3104 27.7186 82.3104 30.48H87.3104ZM122.94 30.48V35.48C125.702 35.48 127.94 33.2414 127.94 30.48H122.94ZM122.94 25.79H127.94C127.94 23.0286 125.702 20.79 122.94 20.79V25.79ZM87.1704 25.79H82.1704C82.1704 28.5514 84.409 30.79 87.1704 30.79V25.79ZM87.3104 42.45V37.45C84.549 37.45 82.3104 39.6886 82.3104 42.45H87.3104ZM134 42.45H139C139 39.6886 136.762 37.45 134 37.45V42.45ZM134 49.8V54.8C136.762 54.8 139 52.5614 139 49.8H134ZM87.3104 49.8H82.3104C82.3104 52.5614 84.549 54.8 87.3104 54.8V49.8ZM80.4504 59.42H139.18V49.42H80.4504V59.42ZM134.18 54.42V61.77H144.18V54.42H134.18ZM139.18 56.77H80.4504V66.77H139.18V56.77ZM85.4504 61.77V54.42H75.4504V61.77H85.4504ZM93.9604 63.27H103.34V53.27H93.9604V63.27ZM98.3404 58.27V81.23H108.34V58.27H98.3404ZM103.34 76.23H93.9604V86.23H103.34V76.23ZM98.9604 81.23V58.27H88.9604V81.23H98.9604ZM116.36 63.27H125.74V53.27H116.36V63.27ZM120.74 58.27V81.23H130.74V58.27H120.74ZM125.74 76.23H116.36V86.23H125.74V76.23ZM121.36 81.23V58.27H111.36V81.23H121.36ZM87.1704 23.37H132.39V13.37H87.1704V23.37ZM127.39 18.37V37.34H137.39V18.37H127.39ZM132.39 32.34H96.7604V42.34H132.39V32.34ZM91.7604 37.34V47.42H101.76V37.34H91.7604ZM96.7604 42.42H87.3104V52.42H96.7604V42.42ZM92.3104 47.42V30.48H82.3104V47.42H92.3104ZM87.3104 35.48H122.94V25.48H87.3104V35.48ZM127.94 30.48V25.79H117.94V30.48H127.94ZM122.94 20.79H87.1704V30.79H122.94V20.79ZM92.1704 25.79V18.37H82.1704V25.79H92.1704ZM87.3104 47.45H134V37.45H87.3104V47.45ZM129 42.45V49.8H139V42.45H129ZM134 44.8H87.3104V54.8H134V44.8ZM92.3104 49.8V42.45H82.3104V49.8H92.3104ZM148.235 73.9062L144.674 77.4166C144.691 77.4335 144.707 77.4502 144.724 77.4668L148.235 73.9062ZM148.235 65.5043L144.724 61.9437C144.716 61.952 144.707 61.9604 144.699 61.9687L148.235 65.5043ZM156.637 65.5043L153.151 69.0892L153.151 69.0892L156.637 65.5043ZM157.581 72.6882L153.328 70.0591C153.324 70.0664 153.319 70.0737 153.315 70.081L157.581 72.6882ZM155.419 74.8509L157.968 79.1523C157.987 79.1408 158.006 79.1291 158.026 79.1173L155.419 74.8509ZM152.46 70.6463C152.144 70.6463 151.993 70.5908 151.745 70.3457L144.724 77.4668C146.829 79.5418 149.496 80.6463 152.46 80.6463V70.6463ZM151.795 70.3959C151.55 70.1474 151.494 69.9968 151.494 69.6804H141.494C141.494 72.6453 142.599 75.3119 144.674 77.4166L151.795 70.3959ZM151.494 69.6804C151.494 69.4772 151.528 69.3824 151.545 69.3414C151.562 69.2993 151.611 69.1989 151.77 69.0398L144.699 61.9687C142.612 64.0557 141.494 66.7152 141.494 69.6804H151.494ZM151.745 69.0648C151.993 68.8198 152.144 68.7642 152.46 68.7642V58.7642C149.496 58.7642 146.829 59.8687 144.724 61.9437L151.745 69.0648ZM152.46 68.7642C152.685 68.7642 152.844 68.7903 153.151 69.0892L160.122 61.9193C158.043 59.8982 155.418 58.7642 152.46 58.7642V68.7642ZM153.151 69.0892C153.322 69.255 153.369 69.3558 153.383 69.3879C153.396 69.4175 153.426 69.4959 153.426 69.6804H163.426C163.426 66.6688 162.257 63.9946 160.122 61.9193L153.151 69.0892ZM153.426 69.6804C153.426 69.8657 153.393 69.9547 153.328 70.0591L161.834 75.3173C162.896 73.5988 163.426 71.6826 163.426 69.6804H153.426ZM153.315 70.081C153.181 70.299 153.029 70.4512 152.811 70.5844L158.026 79.1173C159.597 78.1568 160.887 76.8672 161.848 75.2955L153.315 70.081ZM152.869 70.5494C152.774 70.6057 152.674 70.6463 152.46 70.6463V80.6463C154.401 80.6463 156.273 80.1566 157.968 79.1523L152.869 70.5494ZM169.084 73.9062L165.524 77.4166C165.54 77.4335 165.557 77.4502 165.574 77.4668L169.084 73.9062ZM169.084 65.5043L165.574 61.9437C165.565 61.952 165.557 61.9604 165.549 61.9687L169.084 65.5043ZM177.486 65.5043L174.001 69.0892L174.001 69.0892L177.486 65.5043ZM178.431 72.6882L174.178 70.0591C174.173 70.0664 174.169 70.0737 174.164 70.081L178.431 72.6882ZM176.268 74.8509L178.817 79.1523C178.837 79.1408 178.856 79.1291 178.875 79.1173L176.268 74.8509ZM173.31 70.6463C172.994 70.6463 172.843 70.5908 172.595 70.3457L165.574 77.4668C167.678 79.5418 170.345 80.6463 173.31 80.6463V70.6463ZM172.645 70.3959C172.4 70.1474 172.344 69.9968 172.344 69.6804H162.344C162.344 72.6453 163.449 75.3119 165.524 77.4166L172.645 70.3959ZM172.344 69.6804C172.344 69.4772 172.377 69.3824 172.395 69.3414C172.412 69.2993 172.461 69.1989 172.62 69.0398L165.549 61.9687C163.462 64.0557 162.344 66.7152 162.344 69.6804H172.344ZM172.595 69.0648C172.843 68.8198 172.994 68.7642 173.31 68.7642V58.7642C170.345 58.7642 167.678 59.8687 165.574 61.9437L172.595 69.0648ZM173.31 68.7642C173.534 68.7642 173.693 68.7903 174.001 69.0892L180.972 61.9193C178.893 59.8982 176.268 58.7642 173.31 58.7642V68.7642ZM174.001 69.0892C174.171 69.255 174.219 69.3558 174.233 69.3879C174.245 69.4175 174.276 69.4959 174.276 69.6804H184.276C184.276 66.6688 183.106 63.9946 180.972 61.9193L174.001 69.0892ZM174.276 69.6804C174.276 69.8657 174.242 69.9547 174.178 70.0591L182.684 75.3173C183.746 73.5988 184.276 71.6826 184.276 69.6804H174.276ZM174.164 70.081C174.031 70.299 173.879 70.4512 173.661 70.5844L178.875 79.1173C180.447 78.1568 181.737 76.8672 182.697 75.2955L174.164 70.081ZM173.719 70.5494C173.624 70.6057 173.524 70.6463 173.31 70.6463V80.6463C175.251 80.6463 177.122 80.1566 178.817 79.1523L173.719 70.5494Z" fill="white" mask="url(#path-1-outside-1_235_176)"/>
</g>
<defs>
<clipPath id="clip0_235_176">
<rect width="198" height="100" fill="white"/>
</clipPath>
</defs>
</svg>
