<svg width="166" height="85" viewBox="0 0 166 85" fill="none" xmlns="http://www.w3.org/2000/svg">
<mask id="path-1-outside-1_148_1030" maskUnits="userSpaceOnUse" x="4" y="4" width="155" height="75" fill="black">
<rect fill="white" x="4" y="4" width="155" height="75"/>
<path d="M34.44 45.88H43.75V60.65H34.44V45.88ZM39.13 12.7C52.99 12.7 63.35 19.77 63.35 30.55C63.35 41.47 52.99 48.47 39.13 48.47C25.27 48.47 14.91 41.47 14.91 30.55C14.91 19.77 25.27 12.7 39.13 12.7ZM39.13 20.05C30.24 20.05 24.08 23.97 24.08 30.55C24.08 37.27 30.24 41.12 39.13 41.12C48.02 41.12 54.18 37.27 54.18 30.55C54.18 23.97 48.02 20.05 39.13 20.05ZM9.87 59.18H68.53V66.74H9.87V59.18ZM115.915 9.41H125.225V44.13H115.915V9.41ZM122.635 23.34H133.835V30.9H122.635V23.34ZM76.6445 35.17H82.0345C96.1045 35.17 103.105 34.82 110.875 33.21L111.785 40.56C103.875 42.31 96.4545 42.66 82.0345 42.66H76.6445V35.17ZM76.6445 13.26H105.415V20.68H85.8845V40.14H76.6445V13.26ZM82.8745 47.28H92.1145V53.16H115.985V47.28H125.225V73.46H82.8745V47.28ZM92.1145 60.37V66.04H115.985V60.37H92.1145ZM152.668 17.0909L151.698 52.7372H142.6L141.606 17.0909H152.668ZM147.149 68.6463C145.509 68.6463 144.1 68.0663 142.923 66.9062C141.747 65.7296 141.167 64.321 141.183 62.6804C141.167 61.0563 141.747 59.6643 142.923 58.5043C144.1 57.3442 145.509 56.7642 147.149 56.7642C148.723 56.7642 150.107 57.3442 151.3 58.5043C152.494 59.6643 153.098 61.0563 153.115 62.6804C153.098 63.7741 152.808 64.7768 152.245 65.6882C151.698 66.5831 150.977 67.304 150.082 67.8509C149.188 68.3812 148.21 68.6463 147.149 68.6463Z"/>
</mask>
<path d="M34.44 45.88H43.75V60.65H34.44V45.88ZM39.13 12.7C52.99 12.7 63.35 19.77 63.35 30.55C63.35 41.47 52.99 48.47 39.13 48.47C25.27 48.47 14.91 41.47 14.91 30.55C14.91 19.77 25.27 12.7 39.13 12.7ZM39.13 20.05C30.24 20.05 24.08 23.97 24.08 30.55C24.08 37.27 30.24 41.12 39.13 41.12C48.02 41.12 54.18 37.27 54.18 30.55C54.18 23.97 48.02 20.05 39.13 20.05ZM9.87 59.18H68.53V66.74H9.87V59.18ZM115.915 9.41H125.225V44.13H115.915V9.41ZM122.635 23.34H133.835V30.9H122.635V23.34ZM76.6445 35.17H82.0345C96.1045 35.17 103.105 34.82 110.875 33.21L111.785 40.56C103.875 42.31 96.4545 42.66 82.0345 42.66H76.6445V35.17ZM76.6445 13.26H105.415V20.68H85.8845V40.14H76.6445V13.26ZM82.8745 47.28H92.1145V53.16H115.985V47.28H125.225V73.46H82.8745V47.28ZM92.1145 60.37V66.04H115.985V60.37H92.1145ZM152.668 17.0909L151.698 52.7372H142.6L141.606 17.0909H152.668ZM147.149 68.6463C145.509 68.6463 144.1 68.0663 142.923 66.9062C141.747 65.7296 141.167 64.321 141.183 62.6804C141.167 61.0563 141.747 59.6643 142.923 58.5043C144.1 57.3442 145.509 56.7642 147.149 56.7642C148.723 56.7642 150.107 57.3442 151.3 58.5043C152.494 59.6643 153.098 61.0563 153.115 62.6804C153.098 63.7741 152.808 64.7768 152.245 65.6882C151.698 66.5831 150.977 67.304 150.082 67.8509C149.188 68.3812 148.21 68.6463 147.149 68.6463Z" fill="#FF000F"/>
<path d="M34.44 45.88V40.88C31.6786 40.88 29.44 43.1186 29.44 45.88H34.44ZM43.75 45.88H48.75C48.75 43.1186 46.5114 40.88 43.75 40.88V45.88ZM43.75 60.65V65.65C46.5114 65.65 48.75 63.4114 48.75 60.65H43.75ZM34.44 60.65H29.44C29.44 63.4114 31.6786 65.65 34.44 65.65V60.65ZM9.87 59.18V54.18C7.10858 54.18 4.87 56.4186 4.87 59.18H9.87ZM68.53 59.18H73.53C73.53 56.4186 71.2914 54.18 68.53 54.18V59.18ZM68.53 66.74V71.74C71.2914 71.74 73.53 69.5014 73.53 66.74H68.53ZM9.87 66.74H4.87C4.87 69.5014 7.10858 71.74 9.87 71.74V66.74ZM34.44 50.88H43.75V40.88H34.44V50.88ZM38.75 45.88V60.65H48.75V45.88H38.75ZM43.75 55.65H34.44V65.65H43.75V55.65ZM39.44 60.65V45.88H29.44V60.65H39.44ZM39.13 17.7C45.2685 17.7 50.2307 19.2726 53.5142 21.6389C56.6945 23.9307 58.35 26.9568 58.35 30.55H68.35C68.35 23.3632 64.8255 17.4643 59.3608 13.5261C53.9993 9.66237 46.8515 7.7 39.13 7.7V17.7ZM58.35 30.55C58.35 34.2311 56.6784 37.2683 53.5142 39.5486C50.2377 41.9098 45.2793 43.47 39.13 43.47V53.47C46.8407 53.47 53.9923 51.5302 59.3608 47.6614C64.8416 43.7117 68.35 37.7889 68.35 30.55H58.35ZM39.13 43.47C32.9807 43.47 28.0223 41.9098 24.7458 39.5486C21.5816 37.2683 19.91 34.2311 19.91 30.55H9.91C9.91 37.7889 13.4184 43.7117 18.8992 47.6614C24.2677 51.5302 31.4193 53.47 39.13 53.47V43.47ZM19.91 30.55C19.91 26.9568 21.5655 23.9307 24.7458 21.6389C28.0293 19.2726 32.9915 17.7 39.13 17.7V7.7C31.4085 7.7 24.2607 9.66237 18.8992 13.5261C13.4345 17.4643 9.91 23.3632 9.91 30.55H19.91ZM39.13 15.05C34.0325 15.05 29.1892 16.1623 25.4601 18.6976C21.5613 21.3482 19.08 25.4624 19.08 30.55H29.08C29.08 29.0576 29.6787 27.9217 31.0824 26.9674C32.6558 25.8977 35.3375 25.05 39.13 25.05V15.05ZM19.08 30.55C19.08 35.6764 21.5338 39.8206 25.4601 42.4899C29.2001 45.0326 34.0506 46.12 39.13 46.12V36.12C35.3194 36.12 32.6449 35.2824 31.0824 34.2201C29.7062 33.2844 29.08 32.1435 29.08 30.55H19.08ZM39.13 46.12C44.2094 46.12 49.0599 45.0326 52.7999 42.4899C56.7262 39.8206 59.18 35.6764 59.18 30.55H49.18C49.18 32.1435 48.5538 33.2844 47.1776 34.2201C45.6151 35.2824 42.9406 36.12 39.13 36.12V46.12ZM59.18 30.55C59.18 25.4624 56.6987 21.3482 52.7999 18.6976C49.0708 16.1623 44.2275 15.05 39.13 15.05V25.05C42.9225 25.05 45.6042 25.8977 47.1776 26.9674C48.5813 27.9217 49.18 29.0576 49.18 30.55H59.18ZM9.87 64.18H68.53V54.18H9.87V64.18ZM63.53 59.18V66.74H73.53V59.18H63.53ZM68.53 61.74H9.87V71.74H68.53V61.74ZM14.87 66.74V59.18H4.87V66.74H14.87ZM115.915 9.41V4.41C113.153 4.41 110.915 6.64858 110.915 9.41H115.915ZM125.225 9.41H130.225C130.225 6.64858 127.986 4.41 125.225 4.41V9.41ZM125.225 44.13V49.13C127.986 49.13 130.225 46.8914 130.225 44.13H125.225ZM115.915 44.13H110.915C110.915 46.8914 113.153 49.13 115.915 49.13V44.13ZM122.635 23.34V18.34C119.873 18.34 117.635 20.5786 117.635 23.34H122.635ZM133.835 23.34H138.835C138.835 20.5786 136.596 18.34 133.835 18.34V23.34ZM133.835 30.9V35.9C136.596 35.9 138.835 33.6614 138.835 30.9H133.835ZM122.635 30.9H117.635C117.635 33.6614 119.873 35.9 122.635 35.9V30.9ZM76.6445 35.17V30.17C73.8831 30.17 71.6445 32.4086 71.6445 35.17H76.6445ZM110.875 33.21L115.837 32.5956C115.665 31.2097 114.922 29.9587 113.786 29.1454C112.651 28.3321 111.228 28.0307 109.86 28.314L110.875 33.21ZM111.785 40.56L112.865 45.4419C115.382 44.8849 117.063 42.5047 116.747 39.9456L111.785 40.56ZM76.6445 42.66H71.6445C71.6445 45.4214 73.8831 47.66 76.6445 47.66V42.66ZM76.6445 13.26V8.26C73.8831 8.26 71.6445 10.4986 71.6445 13.26H76.6445ZM105.415 13.26H110.415C110.415 10.4986 108.176 8.26 105.415 8.26V13.26ZM105.415 20.68V25.68C108.176 25.68 110.415 23.4414 110.415 20.68H105.415ZM85.8845 20.68V15.68C83.1231 15.68 80.8845 17.9186 80.8845 20.68H85.8845ZM85.8845 40.14V45.14C88.646 45.14 90.8845 42.9014 90.8845 40.14H85.8845ZM76.6445 40.14H71.6445C71.6445 42.9014 73.8831 45.14 76.6445 45.14V40.14ZM82.8745 47.28V42.28C80.1131 42.28 77.8745 44.5186 77.8745 47.28H82.8745ZM92.1145 47.28H97.1145C97.1145 44.5186 94.876 42.28 92.1145 42.28V47.28ZM92.1145 53.16H87.1145C87.1145 55.9214 89.3531 58.16 92.1145 58.16V53.16ZM115.985 53.16V58.16C118.746 58.16 120.985 55.9214 120.985 53.16H115.985ZM115.985 47.28V42.28C113.223 42.28 110.985 44.5186 110.985 47.28H115.985ZM125.225 47.28H130.225C130.225 44.5186 127.986 42.28 125.225 42.28V47.28ZM125.225 73.46V78.46C127.986 78.46 130.225 76.2214 130.225 73.46H125.225ZM82.8745 73.46H77.8745C77.8745 76.2214 80.1131 78.46 82.8745 78.46V73.46ZM92.1145 60.37V55.37C89.3531 55.37 87.1145 57.6086 87.1145 60.37H92.1145ZM92.1145 66.04H87.1145C87.1145 68.8014 89.3531 71.04 92.1145 71.04V66.04ZM115.985 66.04V71.04C118.746 71.04 120.985 68.8014 120.985 66.04H115.985ZM115.985 60.37H120.985C120.985 57.6086 118.746 55.37 115.985 55.37V60.37ZM115.915 14.41H125.225V4.41H115.915V14.41ZM120.225 9.41V44.13H130.225V9.41H120.225ZM125.225 39.13H115.915V49.13H125.225V39.13ZM120.915 44.13V9.41H110.915V44.13H120.915ZM122.635 28.34H133.835V18.34H122.635V28.34ZM128.835 23.34V30.9H138.835V23.34H128.835ZM133.835 25.9H122.635V35.9H133.835V25.9ZM127.635 30.9V23.34H117.635V30.9H127.635ZM76.6445 40.17H82.0345V30.17H76.6445V40.17ZM82.0345 40.17C96.1455 40.17 103.583 39.8271 111.889 38.106L109.86 28.314C102.626 29.8129 96.0636 30.17 82.0345 30.17V40.17ZM105.912 33.8244L106.822 41.1744L116.747 39.9456L115.837 32.5956L105.912 33.8244ZM110.704 35.678C103.375 37.2995 96.4367 37.66 82.0345 37.66V47.66C96.4723 47.66 104.374 47.3205 112.865 45.4419L110.704 35.678ZM82.0345 37.66H76.6445V47.66H82.0345V37.66ZM81.6445 42.66V35.17H71.6445V42.66H81.6445ZM76.6445 18.26H105.415V8.26H76.6445V18.26ZM100.415 13.26V20.68H110.415V13.26H100.415ZM105.415 15.68H85.8845V25.68H105.415V15.68ZM80.8845 20.68V40.14H90.8845V20.68H80.8845ZM85.8845 35.14H76.6445V45.14H85.8845V35.14ZM81.6445 40.14V13.26H71.6445V40.14H81.6445ZM82.8745 52.28H92.1145V42.28H82.8745V52.28ZM87.1145 47.28V53.16H97.1145V47.28H87.1145ZM92.1145 58.16H115.985V48.16H92.1145V58.16ZM120.985 53.16V47.28H110.985V53.16H120.985ZM115.985 52.28H125.225V42.28H115.985V52.28ZM120.225 47.28V73.46H130.225V47.28H120.225ZM125.225 68.46H82.8745V78.46H125.225V68.46ZM87.8745 73.46V47.28H77.8745V73.46H87.8745ZM87.1145 60.37V66.04H97.1145V60.37H87.1145ZM92.1145 71.04H115.985V61.04H92.1145V71.04ZM120.985 66.04V60.37H110.985V66.04H120.985ZM115.985 55.37H92.1145V65.37H115.985V55.37ZM152.668 17.0909L157.666 17.2268C157.702 15.8777 157.192 14.571 156.251 13.6038C155.31 12.6365 154.017 12.0909 152.668 12.0909V17.0909ZM151.698 52.7372V57.7372C154.407 57.7372 156.623 55.5806 156.696 52.8731L151.698 52.7372ZM142.6 52.7372L137.602 52.8766C137.678 55.5827 139.893 57.7372 142.6 57.7372V52.7372ZM141.606 17.0909V12.0909C140.256 12.0909 138.963 12.637 138.021 13.605C137.08 14.573 136.57 15.8806 136.608 17.2303L141.606 17.0909ZM142.923 66.9062L139.388 70.4418C139.396 70.4501 139.405 70.4585 139.413 70.4668L142.923 66.9062ZM141.183 62.6804L146.183 62.7309C146.183 62.6971 146.183 62.6632 146.183 62.6294L141.183 62.6804ZM142.923 58.5043L146.434 62.0648L146.434 62.0648L142.923 58.5043ZM151.3 58.5043L147.815 62.0892L147.815 62.0892L151.3 58.5043ZM153.115 62.6804L158.114 62.7561C158.115 62.7139 158.115 62.6716 158.115 62.6294L153.115 62.6804ZM152.245 65.6882L147.992 63.0591C147.988 63.0664 147.983 63.0737 147.979 63.081L152.245 65.6882ZM150.082 67.8509L152.631 72.1523C152.651 72.1408 152.67 72.1291 152.69 72.1173L150.082 67.8509ZM147.669 16.955L146.7 52.6013L156.696 52.8731L157.666 17.2268L147.669 16.955ZM151.698 47.7372H142.6V57.7372H151.698V47.7372ZM147.598 52.5978L146.604 16.9515L136.608 17.2303L137.602 52.8766L147.598 52.5978ZM141.606 22.0909H152.668V12.0909H141.606V22.0909ZM147.149 63.6463C146.833 63.6463 146.682 63.5908 146.434 63.3457L139.413 70.4668C141.518 72.5418 144.184 73.6463 147.149 73.6463V63.6463ZM146.459 63.3707C146.294 63.2058 146.246 63.1032 146.229 63.0636C146.213 63.0254 146.181 62.9333 146.183 62.7309L136.183 62.6299C136.153 65.6354 137.276 68.3303 139.388 70.4418L146.459 63.3707ZM146.183 62.6294C146.181 62.4419 146.211 62.3653 146.221 62.3414C146.232 62.3157 146.273 62.2228 146.434 62.0648L139.413 54.9437C137.29 57.0372 136.153 59.7251 136.183 62.7314L146.183 62.6294ZM146.434 62.0648C146.682 61.8198 146.833 61.7642 147.149 61.7642V51.7642C144.184 51.7642 141.518 52.8687 139.413 54.9437L146.434 62.0648ZM147.149 61.7642C147.342 61.7642 147.496 61.7793 147.815 62.0892L154.786 54.9193C152.718 52.9091 150.105 51.7642 147.149 51.7642V61.7642ZM147.815 62.0892C147.99 62.2592 148.044 62.3676 148.063 62.411C148.081 62.4519 148.113 62.5403 148.115 62.7314L158.115 62.6294C158.084 59.6362 156.908 56.9827 154.786 54.9193L147.815 62.0892ZM148.116 62.6046C148.112 62.8153 148.07 62.9324 147.992 63.0591L156.498 68.3173C157.547 66.6211 158.085 64.733 158.114 62.7561L148.116 62.6046ZM147.979 63.081C147.845 63.299 147.693 63.4512 147.475 63.5844L152.69 72.1173C154.261 71.1568 155.551 69.8672 156.511 68.2955L147.979 63.081ZM147.533 63.5494C147.426 63.6131 147.331 63.6463 147.149 63.6463V73.6463C149.088 73.6463 150.949 73.1492 152.631 72.1523L147.533 63.5494Z" fill="white" mask="url(#path-1-outside-1_148_1030)"/>
</svg>
