<svg width="227" height="86" viewBox="0 0 227 86" fill="none" xmlns="http://www.w3.org/2000/svg">
<path d="M68.952 50.512C68.952 48.8053 69.2293 47.184 69.784 45.648C70.3387 44.112 71.1493 42.7893 72.216 41.68C73.3253 40.528 74.712 39.632 76.376 38.992C78.04 38.3093 79.9813 37.968 82.2 37.968H109.272C111.448 37.968 113.368 38.288 115.032 38.928C116.696 39.568 118.083 40.464 119.192 41.616C120.301 42.7253 121.133 44.048 121.688 45.584C122.243 47.12 122.52 48.7627 122.52 50.512C122.52 52.2613 122.243 53.904 121.688 55.44C121.133 56.976 120.301 58.2987 119.192 59.408C118.083 60.56 116.696 61.456 115.032 62.096C113.368 62.736 111.448 63.056 109.272 63.056H82.2C79.9813 63.056 78.04 62.7147 76.376 62.032C74.712 61.392 73.3253 60.496 72.216 59.344C71.1493 58.2347 70.3387 56.9333 69.784 55.44C69.2293 53.904 68.952 52.2613 68.952 50.512ZM97.56 4.624C98.3707 4.624 99.0533 4.77333 99.608 5.072C100.205 5.37066 100.675 5.776 101.016 6.288C101.4 6.75733 101.656 7.29066 101.784 7.888C101.955 8.48533 102.04 9.06133 102.04 9.616C102.04 10.1707 101.955 10.7467 101.784 11.344C101.613 11.8987 101.357 12.4107 101.016 12.88C100.675 13.3493 100.205 13.7333 99.608 14.032C99.0533 14.3307 98.3707 14.48 97.56 14.48H81.304C80.1093 14.48 79.512 14.992 79.512 16.016V23.12C79.512 23.7173 79.6613 24.144 79.96 24.4C80.2587 24.6133 80.7067 24.72 81.304 24.72H99.992C100.803 24.72 101.507 24.8693 102.104 25.168C102.701 25.4667 103.171 25.8507 103.512 26.32C103.853 26.7893 104.109 27.3013 104.28 27.856C104.451 28.4107 104.536 28.9653 104.536 29.52C104.536 30.1173 104.451 30.7147 104.28 31.312C104.109 31.8667 103.853 32.3787 103.512 32.848C103.171 33.3173 102.701 33.7013 102.104 34C101.507 34.2987 100.803 34.448 99.992 34.448H75.992C74.2 34.448 72.728 34.2987 71.576 34C70.424 33.7013 69.4853 33.2107 68.76 32.528C68.0773 31.8027 67.5867 30.8853 67.288 29.776C67.032 28.624 66.904 27.216 66.904 25.552V13.52C66.904 11.856 67.032 10.4693 67.288 9.36C67.5867 8.208 68.0773 7.29066 68.76 6.608C69.4853 5.88266 70.424 5.37066 71.576 5.072C72.728 4.77333 74.2 4.624 75.992 4.624H97.56ZM108.824 9.104C108.824 7.01333 109.443 5.43466 110.68 4.368C111.96 3.30133 113.453 2.768 115.16 2.768C116.824 2.768 118.296 3.32266 119.576 4.432C120.856 5.49866 121.496 7.056 121.496 9.104V14.352H123.48C124.461 14.352 125.272 14.5227 125.912 14.864C126.552 15.2053 127.064 15.632 127.448 16.144C127.832 16.656 128.109 17.2533 128.28 17.936C128.451 18.576 128.536 19.216 128.536 19.856C128.536 20.496 128.451 21.1573 128.28 21.84C128.109 22.48 127.832 23.0773 127.448 23.632C127.064 24.144 126.531 24.5707 125.848 24.912C125.208 25.2107 124.419 25.36 123.48 25.36H121.496V36.432H108.824V9.104ZM81.944 50.512C81.944 51.3227 82.2 52.1333 82.712 52.944C83.224 53.712 84.184 54.096 85.592 54.096H105.88C107.288 54.096 108.248 53.712 108.76 52.944C109.272 52.1333 109.528 51.3227 109.528 50.512C109.528 49.7013 109.272 48.912 108.76 48.144C108.248 47.3333 107.288 46.928 105.88 46.928H85.592C84.184 46.928 83.224 47.3333 82.712 48.144C82.2 48.912 81.944 49.7013 81.944 50.512ZM142.488 62.864C140.568 62.864 139.011 62.6933 137.816 62.352C136.621 62.0533 135.683 61.52 135 60.752C134.36 60.0267 133.912 59.0453 133.656 57.808C133.443 56.5707 133.336 55.0133 133.336 53.136V49.68C133.336 47.8453 133.443 46.3093 133.656 45.072C133.912 43.792 134.36 42.7893 135 42.064C135.683 41.296 136.621 40.7627 137.816 40.464C139.011 40.1227 140.568 39.952 142.488 39.952H176.728C178.648 39.952 180.205 40.1227 181.4 40.464C182.595 40.7627 183.512 41.296 184.152 42.064C184.835 42.7893 185.283 43.792 185.496 45.072C185.752 46.3093 185.88 47.8453 185.88 49.68V62.864H142.488ZM154.776 18.128V18.512C154.776 19.536 154.712 20.5173 154.584 21.456C159.448 21.4133 163.032 22.6507 165.336 25.168C167.683 27.6853 168.813 31.696 168.728 37.2H156.76C156.973 34.768 156.547 32.9547 155.48 31.76C154.456 30.5227 153.027 29.968 151.192 30.096C149.272 32.6987 146.883 34.64 144.024 35.92C141.165 37.2 138.2 37.84 135.128 37.84C133.549 37.84 132.205 37.4347 131.096 36.624C130.029 35.7707 129.496 34.6187 129.496 33.168C129.496 31.6747 129.859 30.5227 130.584 29.712C131.352 28.8587 132.376 28.368 133.656 28.24C136.6 27.8987 138.861 26.8533 140.44 25.104C142.019 23.3547 142.808 21.1573 142.808 18.512V18.128H134.488C133.72 18.128 133.037 17.9787 132.44 17.68C131.885 17.3813 131.416 16.9973 131.032 16.528C130.648 16.0587 130.349 15.5467 130.136 14.992C129.923 14.3947 129.816 13.7973 129.816 13.2C129.816 12.6453 129.901 12.0693 130.072 11.472C130.243 10.832 130.52 10.2773 130.904 9.808C131.288 9.33866 131.779 8.95466 132.376 8.656C132.973 8.31466 133.677 8.144 134.488 8.144H142.616V7.952C142.616 6.032 143.149 4.624 144.216 3.728C145.283 2.832 146.819 2.384 148.824 2.384C150.829 2.384 152.365 2.832 153.432 3.728C154.541 4.624 155.096 6.032 155.096 7.952V8.144H163.48C164.291 8.144 164.995 8.31466 165.592 8.656C166.189 8.95466 166.68 9.33866 167.064 9.808C167.448 10.2773 167.725 10.832 167.896 11.472C168.067 12.0693 168.152 12.6453 168.152 13.2C168.152 13.7973 168.045 14.3947 167.832 14.992C167.619 15.5467 167.32 16.0587 166.936 16.528C166.552 16.9973 166.061 17.3813 165.464 17.68C164.909 17.9787 164.248 18.128 163.48 18.128H154.776ZM172.824 9.104C172.824 7.01333 173.443 5.43466 174.68 4.368C175.96 3.30133 177.453 2.768 179.16 2.768C180.824 2.768 182.296 3.32266 183.576 4.432C184.856 5.49866 185.496 7.056 185.496 9.104V14.544H187.48C188.461 14.544 189.272 14.7147 189.912 15.056C190.552 15.3973 191.064 15.824 191.448 16.336C191.832 16.848 192.109 17.4453 192.28 18.128C192.451 18.768 192.536 19.408 192.536 20.048C192.536 20.688 192.451 21.3493 192.28 22.032C192.109 22.672 191.832 23.2693 191.448 23.824C191.064 24.336 190.531 24.7627 189.848 25.104C189.208 25.4027 188.419 25.552 187.48 25.552H185.496V37.712H172.824V9.104ZM145.944 52.112C145.944 52.752 146.029 53.2427 146.2 53.584C146.413 53.9253 146.84 54.096 147.48 54.096H173.272V50.576C173.272 49.9787 173.165 49.5093 172.952 49.168C172.739 48.8267 172.312 48.656 171.672 48.656H147.48C146.84 48.656 146.413 48.8267 146.2 49.168C146.029 49.5093 145.944 49.9787 145.944 50.576V52.112Z" fill="#E4229F"/>
<g clip-path="url(#clip0_208_10724)">
<path d="M55.325 91.8863C46.8317 91.8863 39.7792 88.9098 34.1675 82.9569C28.5558 77.004 25.75 69.8946 25.75 61.6287V57.6475C19.3042 56.8133 13.901 53.9506 9.54063 49.0594C5.18021 44.1681 3 38.3858 3 31.7125V5.55H16.65V4.4125C16.65 2.52783 18.1778 1 20.0625 1C21.9472 1 23.475 2.52783 23.475 4.4125V16.925H16.65V12.375H9.825V31.7125C9.825 37.0967 11.7019 41.6656 15.4556 45.4194C19.2094 49.1731 23.7783 51.05 29.1625 51.05C34.5467 51.05 39.1156 49.1731 42.8694 45.4194C46.6231 41.6656 48.5 37.0967 48.5 31.7125V13.375C48.5 12.8227 48.0523 12.375 47.5 12.375H41.675V16.925H34.85V4.4125C34.85 2.52783 36.3778 1 38.2625 1C40.1472 1 41.675 2.52783 41.675 4.4125V5.55H51.325C53.5341 5.55 55.325 7.34086 55.325 9.55V31.7125C55.325 38.3858 53.1448 44.1681 48.7844 49.0594C44.424 53.9506 39.0208 56.8133 32.575 57.6475V61.6287C32.575 68.0746 34.7173 73.5915 39.0019 78.1794C43.2865 82.7673 48.7275 85.0613 55.325 85.0613C61.4675 85.0613 66.7948 82.7863 71.3069 78.2363C75.819 73.6862 78.075 68.1504 78.075 61.6287V52.87C75.4208 52.1117 73.2406 50.6329 71.5344 48.4338C69.8281 46.2346 68.975 43.6942 68.975 40.8125C68.975 37.3242 70.1883 34.3667 72.615 31.94C75.0417 29.5133 77.9992 28.3 81.4875 28.3C84.9758 28.3 87.9333 29.5133 90.36 31.94C92.7867 34.3667 94 37.3242 94 40.8125C94 43.6942 93.1469 46.2346 91.4406 48.4338C89.7344 50.6329 87.5542 52.1117 84.9 52.87V61.6287C84.9 70.0462 81.9994 77.1936 76.1981 83.0706C70.3969 88.9477 63.4392 91.8863 55.325 91.8863ZM81.4875 46.5C83.08 46.5 84.426 45.9502 85.5256 44.8506C86.6252 43.751 87.175 42.405 87.175 40.8125C87.175 39.22 86.6252 37.874 85.5256 36.7744C84.426 35.6748 83.08 35.125 81.4875 35.125C79.895 35.125 78.549 35.6748 77.4494 36.7744C76.3498 37.874 75.8 39.22 75.8 40.8125C75.8 42.405 76.3498 43.751 77.4494 44.8506C78.549 45.9502 79.895 46.5 81.4875 46.5Z" fill="#E4229F"/>
</g>
<path d="M29 56C39.5 78 82 82 119 82" stroke="#E4229F" stroke-width="8"/>
<path d="M209 56C198.5 78 155.5 82 119 82" stroke="#E4229F" stroke-width="8"/>
<path d="M215 35.5C215.5 41 211 52 208.5 57" stroke="#E4229F" stroke-width="8"/>
<circle cx="215" cy="32" r="12" fill="#E4229F"/>
<defs>
<clipPath id="clip0_208_10724">
<rect width="58" height="58" fill="white"/>
</clipPath>
</defs>
</svg>
