<svg width="264" height="92" viewBox="0 0 264 92" fill="none" xmlns="http://www.w3.org/2000/svg">
<g filter="url(#filter0_d_103_267)">
<mask id="path-1-outside-1_103_267" maskUnits="userSpaceOnUse" x="10.1658" y="7.96245" width="69.8357" height="72.7734" fill="black">
<rect fill="white" x="10.1658" y="7.96245" width="69.8357" height="72.7734"/>
<path d="M34.5231 19.0309L41.343 17.3668L41.9546 19.8733C44.4864 30.2488 38.4736 41.0419 24.8212 46.5966L20.2682 41.0992C32.2857 36.4375 36.6851 27.891 35.1347 21.5374L34.5231 19.0309ZM35.9804 18.6754L42.742 17.0254L43.3536 19.5319C44.8897 25.8272 52.8037 31.4309 65.5594 30.0476L64.1085 37.01C49.432 38.3679 39.1237 31.5574 36.592 21.1818L35.9804 18.6754ZM42.5465 51.659L50.2408 49.7815L55.0625 69.5417L47.3682 71.4192L42.5465 51.659ZM21.0086 51.7266L69.7971 39.8216L71.3333 46.1169L22.5447 58.0219L21.0086 51.7266Z"/>
</mask>
<path d="M34.5231 19.0309L41.343 17.3668L41.9546 19.8733C44.4864 30.2488 38.4736 41.0419 24.8212 46.5966L20.2682 41.0992C32.2857 36.4375 36.6851 27.891 35.1347 21.5374L34.5231 19.0309ZM35.9804 18.6754L42.742 17.0254L43.3536 19.5319C44.8897 25.8272 52.8037 31.4309 65.5594 30.0476L64.1085 37.01C49.432 38.3679 39.1237 31.5574 36.592 21.1818L35.9804 18.6754ZM42.5465 51.659L50.2408 49.7815L55.0625 69.5417L47.3682 71.4192L42.5465 51.659ZM21.0086 51.7266L69.7971 39.8216L71.3333 46.1169L22.5447 58.0219L21.0086 51.7266Z" fill="white"/>
<path d="M34.5231 19.0309L33.812 16.1164C32.2023 16.5092 31.2159 18.1325 31.6086 19.7421L34.5231 19.0309ZM41.343 17.3668L44.2575 16.6556C43.8648 15.046 42.2415 14.0595 40.6319 14.4523L41.343 17.3668ZM24.8212 46.5966L22.5107 48.5101C23.346 49.5186 24.7389 49.8689 25.9518 49.3754L24.8212 46.5966ZM20.2682 41.0992L19.1833 38.3022C18.2842 38.651 17.6077 39.4106 17.3649 40.3438C17.1221 41.277 17.3427 42.2701 17.9577 43.0127L20.2682 41.0992ZM35.9804 18.6754L35.2692 15.7609C33.6596 16.1536 32.6731 17.7769 33.0659 19.3865L35.9804 18.6754ZM42.742 17.0254L45.6565 16.3143C45.2637 14.7046 43.6404 13.7182 42.0308 14.111L42.742 17.0254ZM65.5594 30.0476L68.4963 30.6596C68.6921 29.7199 68.4264 28.7432 67.7815 28.0321C67.1365 27.3211 66.1903 26.9616 65.2359 27.0651L65.5594 30.0476ZM64.1085 37.01L64.3849 39.9973C65.6972 39.8759 66.7765 38.9122 67.0454 37.622L64.1085 37.01ZM42.5465 51.659L41.8353 48.7445C40.2257 49.1373 39.2392 50.7605 39.632 52.3701L42.5465 51.659ZM50.2408 49.7815L53.1552 49.0703C52.7625 47.4607 51.1392 46.4742 49.5296 46.867L50.2408 49.7815ZM55.0625 69.5417L55.7736 72.4562C57.3833 72.0634 58.3697 70.4402 57.977 68.8306L55.0625 69.5417ZM47.3682 71.4192L44.4537 72.1304C44.8465 73.74 46.4698 74.7265 48.0794 74.3337L47.3682 71.4192ZM21.0086 51.7266L20.2974 48.8121C18.6878 49.2049 17.7014 50.8281 18.0941 52.4378L21.0086 51.7266ZM69.7971 39.8216L72.7116 39.1105C72.3189 37.5008 70.6956 36.5144 69.086 36.9071L69.7971 39.8216ZM71.3333 46.1169L72.0444 49.0314C73.6541 48.6387 74.6405 47.0154 74.2478 45.4058L71.3333 46.1169ZM22.5447 58.0219L19.6302 58.7331C20.023 60.3427 21.6463 61.3291 23.2559 60.9364L22.5447 58.0219ZM35.2343 21.9454L42.0542 20.2813L40.6319 14.4523L33.812 16.1164L35.2343 21.9454ZM38.4285 18.078L39.0402 20.5844L44.8691 19.1621L44.2575 16.6556L38.4285 18.078ZM39.0402 20.5844C41.1236 29.1229 36.3762 38.6564 23.6906 43.8178L25.9518 49.3754C40.5709 43.4273 47.8492 31.3747 44.8691 19.1621L39.0402 20.5844ZM27.1317 44.683L22.5787 39.1856L17.9577 43.0127L22.5107 48.5101L27.1317 44.683ZM21.3532 43.8961C34.139 38.9364 40.0973 29.2197 38.0492 20.8262L32.2202 22.2486C33.2728 26.5622 30.4323 33.9386 19.1833 38.3022L21.3532 43.8961ZM38.0492 20.8262L37.4376 18.3198L31.6086 19.7421L32.2202 22.2486L38.0492 20.8262ZM36.6915 21.5898L43.4532 19.9399L42.0308 14.111L35.2692 15.7609L36.6915 21.5898ZM39.8275 17.7366L40.4391 20.2431L46.2681 18.8207L45.6565 16.3143L39.8275 17.7366ZM40.4391 20.2431C42.473 28.5782 52.3093 34.5021 65.8828 33.0301L65.2359 27.0651C53.2981 28.3597 47.3065 23.0762 46.2681 18.8207L40.4391 20.2431ZM62.6225 29.4356L61.1716 36.398L67.0454 37.622L68.4963 30.6596L62.6225 29.4356ZM63.8321 34.0228C50.1949 35.2845 41.59 29.0091 39.5065 20.4706L33.6775 21.893C36.6575 34.1056 48.6692 41.4513 64.3849 39.9973L63.8321 34.0228ZM39.5065 20.4706L38.8949 17.9642L33.0659 19.3865L33.6775 21.893L39.5065 20.4706ZM43.2577 54.5735L50.9519 52.696L49.5296 46.867L41.8353 48.7445L43.2577 54.5735ZM47.3263 50.4927L52.148 70.2529L57.977 68.8306L53.1552 49.0703L47.3263 50.4927ZM54.3513 66.6272L46.6571 68.5047L48.0794 74.3337L55.7736 72.4562L54.3513 66.6272ZM50.2827 70.708L45.461 50.9478L39.632 52.3701L44.4537 72.1304L50.2827 70.708ZM21.7198 54.6411L70.5083 42.7361L69.086 36.9071L20.2974 48.8121L21.7198 54.6411ZM66.8827 40.5328L68.4188 46.8281L74.2478 45.4058L72.7116 39.1105L66.8827 40.5328ZM70.6221 43.2024L21.8336 55.1074L23.2559 60.9364L72.0444 49.0314L70.6221 43.2024ZM25.4592 57.3107L23.9231 51.0154L18.0941 52.4378L19.6302 58.7331L25.4592 57.3107Z" fill="#FFAFD3" mask="url(#path-1-outside-1_103_267)"/>
</g>
<g filter="url(#filter1_d_103_267)">
<mask id="path-3-outside-2_103_267" maskUnits="userSpaceOnUse" x="67.3313" y="17.2204" width="66.2477" height="70.4985" fill="black">
<rect fill="white" x="67.3313" y="17.2204" width="66.2477" height="70.4985"/>
<path d="M78.2105 26.2376L110.589 30.815L109.707 37.0529L77.3286 32.4756L78.2105 26.2376ZM93.3038 36.4913C101.205 37.6084 106.21 42.4971 105.353 48.5568C104.497 54.6166 98.3412 57.8669 90.4398 56.7499C82.4789 55.6245 77.4656 50.7951 78.3223 44.7354C79.1789 38.6757 85.3429 35.3659 93.3038 36.4913ZM92.4639 42.4323C88.8993 41.9283 86.3214 43.0182 85.9266 45.8104C85.5403 48.5433 87.7151 50.305 91.2796 50.809C94.7848 51.3045 97.4221 50.223 97.8085 47.4902C98.2032 44.698 95.969 42.9278 92.4639 42.4323ZM114.299 26.4312L122.2 27.5482L117.32 62.065L109.419 60.9479L114.299 26.4312ZM117.995 41.4362L127.5 42.7801L126.593 49.1963L117.088 47.8524L117.995 41.4362ZM80.2863 59.1321L117.001 64.3225L114.423 82.5612L106.521 81.4441L108.21 69.5029L79.3961 65.4295L80.2863 59.1321ZM91.1711 22.8586L99.0725 23.9756L97.8463 32.6494L89.9448 31.5323L91.1711 22.8586Z"/>
</mask>
<path d="M78.2105 26.2376L110.589 30.815L109.707 37.0529L77.3286 32.4756L78.2105 26.2376ZM93.3038 36.4913C101.205 37.6084 106.21 42.4971 105.353 48.5568C104.497 54.6166 98.3412 57.8669 90.4398 56.7499C82.4789 55.6245 77.4656 50.7951 78.3223 44.7354C79.1789 38.6757 85.3429 35.3659 93.3038 36.4913ZM92.4639 42.4323C88.8993 41.9283 86.3214 43.0182 85.9266 45.8104C85.5403 48.5433 87.7151 50.305 91.2796 50.809C94.7848 51.3045 97.4221 50.223 97.8085 47.4902C98.2032 44.698 95.969 42.9278 92.4639 42.4323ZM114.299 26.4312L122.2 27.5482L117.32 62.065L109.419 60.9479L114.299 26.4312ZM117.995 41.4362L127.5 42.7801L126.593 49.1963L117.088 47.8524L117.995 41.4362ZM80.2863 59.1321L117.001 64.3225L114.423 82.5612L106.521 81.4441L108.21 69.5029L79.3961 65.4295L80.2863 59.1321ZM91.1711 22.8586L99.0725 23.9756L97.8463 32.6494L89.9448 31.5323L91.1711 22.8586Z" fill="white"/>
<path d="M78.2105 26.2376L78.6304 23.2672C76.9899 23.0352 75.4719 24.1771 75.24 25.8177L78.2105 26.2376ZM110.589 30.815L113.559 31.2349C113.791 29.5944 112.649 28.0764 111.008 27.8445L110.589 30.815ZM109.707 37.0529L109.287 40.0234C110.927 40.2553 112.445 39.1134 112.677 37.4729L109.707 37.0529ZM77.3286 32.4756L74.3581 32.0557C74.1262 33.6962 75.2681 35.2141 76.9087 35.4461L77.3286 32.4756ZM114.299 26.4312L114.719 23.4607C113.078 23.2288 111.56 24.3707 111.328 26.0112L114.299 26.4312ZM122.2 27.5482L125.171 27.9681C125.403 26.3276 124.261 24.8097 122.62 24.5777L122.2 27.5482ZM117.32 62.065L116.9 65.0354C118.541 65.2674 120.059 64.1255 120.291 62.4849L117.32 62.065ZM109.419 60.9479L106.449 60.528C106.217 62.1685 107.359 63.6865 108.999 63.9184L109.419 60.9479ZM117.995 41.4362L118.415 38.4658C116.774 38.2339 115.256 39.3758 115.024 41.0163L117.995 41.4362ZM127.5 42.7801L130.471 43.2C130.703 41.5594 129.561 40.0415 127.92 39.8096L127.5 42.7801ZM126.593 49.1963L126.173 52.1667C127.814 52.3986 129.332 51.2567 129.564 49.6162L126.593 49.1963ZM117.088 47.8524L114.117 47.4325C113.885 49.0731 115.027 50.591 116.668 50.8229L117.088 47.8524ZM80.2863 59.1321L80.7063 56.1616C79.0657 55.9297 77.5478 57.0716 77.3159 58.7121L80.2863 59.1321ZM117.001 64.3225L119.972 64.7425C120.204 63.1019 119.062 61.584 117.421 61.3521L117.001 64.3225ZM114.423 82.5612L114.003 85.5316C115.643 85.7636 117.161 84.6216 117.393 82.9811L114.423 82.5612ZM106.521 81.4441L103.551 81.0242C103.319 82.6647 104.461 84.1827 106.101 84.4146L106.521 81.4441ZM108.21 69.5029L111.18 69.9228C111.412 68.2823 110.27 66.7643 108.63 66.5324L108.21 69.5029ZM79.3961 65.4295L76.4256 65.0095C76.1937 66.6501 77.3356 68.168 78.9761 68.3999L79.3961 65.4295ZM91.1711 22.8586L91.591 19.8881C89.9505 19.6562 88.4325 20.7981 88.2006 22.4386L91.1711 22.8586ZM99.0725 23.9756L102.043 24.3956C102.275 22.755 101.133 21.2371 99.4924 21.0052L99.0725 23.9756ZM97.8463 32.6494L97.4263 35.6198C99.0669 35.8518 100.585 34.7098 100.817 33.0693L97.8463 32.6494ZM89.9448 31.5323L86.9744 31.1124C86.7425 32.7529 87.8844 34.2709 89.5249 34.5028L89.9448 31.5323ZM77.7905 29.2081L110.169 33.7854L111.008 27.8445L78.6304 23.2672L77.7905 29.2081ZM107.618 30.395L106.736 36.633L112.677 37.4729L113.559 31.2349L107.618 30.395ZM110.127 34.0825L77.7485 29.5051L76.9087 35.4461L109.287 40.0234L110.127 34.0825ZM80.2991 32.8955L81.1809 26.6576L75.24 25.8177L74.3581 32.0557L80.2991 32.8955ZM92.8838 39.4618C96.3515 39.952 98.927 41.2365 100.498 42.7981C102.016 44.3074 102.668 46.1206 102.383 48.1369L108.324 48.9768C108.896 44.9334 107.473 41.2723 104.728 38.543C102.035 35.8661 98.1574 34.1477 93.7237 33.5209L92.8838 39.4618ZM102.383 48.1369C102.098 50.1496 100.976 51.6933 99.1066 52.7084C97.1679 53.7613 94.3367 54.271 90.8597 53.7794L90.0198 59.7204C94.4443 60.3458 98.6415 59.7888 101.97 57.9809C105.369 56.1352 107.752 53.0238 108.324 48.9768L102.383 48.1369ZM90.8597 53.7794C87.3487 53.2831 84.7546 52.0043 83.1778 50.4538C81.6585 48.96 81.0083 47.1671 81.2927 45.1553L75.3518 44.3155C74.7795 48.3635 76.2077 52.0151 78.9711 54.7322C81.677 57.3927 85.57 59.0913 90.0198 59.7204L90.8597 53.7794ZM81.2927 45.1553C81.5776 43.1399 82.7055 41.5798 84.5874 40.5516C86.5358 39.487 89.382 38.9667 92.8838 39.4618L93.7237 33.5209C89.2647 32.8905 85.0484 33.4624 81.7105 35.2863C78.306 37.1465 75.9235 40.2711 75.3518 44.3155L81.2927 45.1553ZM92.8838 39.4618C90.7694 39.1629 88.562 39.272 86.6861 40.1915C84.6513 41.189 83.2923 43.0127 82.9562 45.3905L88.8971 46.2304C88.9348 45.964 89.0063 45.8442 89.0425 45.7942C89.079 45.7439 89.1515 45.6651 89.327 45.5791C89.73 45.3816 90.5938 45.1977 92.0439 45.4027L92.8838 39.4618ZM82.9562 45.3905C82.6208 47.7625 83.4444 49.8755 85.1171 51.3776C86.6611 52.7642 88.7442 53.4804 90.8597 53.7794L91.6996 47.8385C90.2506 47.6337 89.4639 47.2169 89.126 46.9135C88.9782 46.7807 88.9323 46.6866 88.914 46.6368C88.8963 46.5889 88.863 46.4715 88.8971 46.2304L82.9562 45.3905ZM90.8597 53.7794C92.9546 54.0756 95.1464 53.9603 97.0119 53.0647C99.0256 52.0981 100.44 50.3091 100.779 47.9101L94.838 47.0703C94.8057 47.299 94.7438 47.3971 94.7132 47.4382C94.6799 47.4828 94.604 47.5651 94.4153 47.6557C93.9892 47.8602 93.1099 48.0379 91.6996 47.8385L90.8597 53.7794ZM100.779 47.9101C101.119 45.5056 100.28 43.3786 98.6067 41.8711C97.0591 40.4769 94.9776 39.7578 92.8838 39.4618L92.0439 45.4027C93.4553 45.6022 94.2434 46.0161 94.5906 46.3288C94.7436 46.4667 94.7956 46.5685 94.8179 46.629C94.8393 46.687 94.874 46.816 94.838 47.0703L100.779 47.9101ZM113.879 29.4016L121.78 30.5187L122.62 24.5777L114.719 23.4607L113.879 29.4016ZM119.23 27.1283L114.35 61.645L120.291 62.4849L125.171 27.9681L119.23 27.1283ZM117.74 59.0945L109.839 57.9775L108.999 63.9184L116.9 65.0354L117.74 59.0945ZM112.389 61.3679L117.269 26.8511L111.328 26.0112L106.449 60.528L112.389 61.3679ZM117.575 44.4067L127.08 45.7505L127.92 39.8096L118.415 38.4658L117.575 44.4067ZM124.53 42.3601L123.623 48.7763L129.564 49.6162L130.471 43.2L124.53 42.3601ZM127.013 46.2258L117.508 44.882L116.668 50.8229L126.173 52.1667L127.013 46.2258ZM120.058 48.2724L120.965 41.8562L115.024 41.0163L114.117 47.4325L120.058 48.2724ZM79.8664 62.1025L116.581 67.293L117.421 61.3521L80.7063 56.1616L79.8664 62.1025ZM114.031 63.9026L111.452 82.1412L117.393 82.9811L119.972 64.7425L114.031 63.9026ZM114.843 79.5907L106.941 78.4737L106.101 84.4146L114.003 85.5316L114.843 79.5907ZM109.492 81.8641L111.18 69.9228L105.239 69.0829L103.551 81.0242L109.492 81.8641ZM108.63 66.5324L79.816 62.459L78.9761 68.3999L107.79 72.4733L108.63 66.5324ZM82.3665 65.8494L83.2568 59.552L77.3159 58.7121L76.4256 65.0095L82.3665 65.8494ZM90.7511 25.829L98.6526 26.9461L99.4924 21.0052L91.591 19.8881L90.7511 25.829ZM96.102 23.5557L94.8758 32.2294L100.817 33.0693L102.043 24.3956L96.102 23.5557ZM98.2662 29.6789L90.3648 28.5619L89.5249 34.5028L97.4263 35.6198L98.2662 29.6789ZM92.9153 31.9523L94.1415 23.2785L88.2006 22.4386L86.9744 31.1124L92.9153 31.9523Z" fill="#22FFBC" mask="url(#path-3-outside-2_103_267)"/>
</g>
<g filter="url(#filter2_d_103_267)">
<mask id="path-5-outside-3_103_267" maskUnits="userSpaceOnUse" x="132.453" y="10.7406" width="60.1289" height="69.5209" fill="black">
<rect fill="white" x="132.453" y="10.7406" width="60.1289" height="69.5209"/>
<path d="M150.873 23.0024C159.075 21.8698 166.129 28.6487 167.787 40.6548C169.461 52.7797 164.508 61.2165 156.306 62.3491C148.045 63.4899 141.05 56.7028 139.376 44.5779C137.718 32.5718 142.611 24.1433 150.873 23.0024ZM151.866 30.1942C147.884 30.7441 145.808 35.4522 146.925 43.5355C148.057 51.7377 151.339 55.7666 155.321 55.2168C159.363 54.6587 161.371 49.8993 160.238 41.6971C159.122 33.6138 155.908 29.6361 151.866 30.1942ZM173.579 15.93L181.424 14.8466L189.049 70.0627L181.204 71.1461L173.579 15.93ZM164.968 37.3492L179.649 35.322L180.527 41.6817L165.846 43.7089L164.968 37.3492Z"/>
</mask>
<path d="M150.873 23.0024C159.075 21.8698 166.129 28.6487 167.787 40.6548C169.461 52.7797 164.508 61.2165 156.306 62.3491C148.045 63.4899 141.05 56.7028 139.376 44.5779C137.718 32.5718 142.611 24.1433 150.873 23.0024ZM151.866 30.1942C147.884 30.7441 145.808 35.4522 146.925 43.5355C148.057 51.7377 151.339 55.7666 155.321 55.2168C159.363 54.6587 161.371 49.8993 160.238 41.6971C159.122 33.6138 155.908 29.6361 151.866 30.1942ZM173.579 15.93L181.424 14.8466L189.049 70.0627L181.204 71.1461L173.579 15.93ZM164.968 37.3492L179.649 35.322L180.527 41.6817L165.846 43.7089L164.968 37.3492Z" fill="white"/>
<path d="M173.579 15.93L173.169 12.9582C171.527 13.1849 170.381 14.6991 170.607 16.3404L173.579 15.93ZM181.424 14.8466L184.396 14.4363C184.17 12.795 182.655 11.6482 181.014 11.8748L181.424 14.8466ZM189.049 70.0627L189.459 73.0345C191.101 72.8079 192.248 71.2936 192.021 69.6523L189.049 70.0627ZM181.204 71.1461L178.232 71.5564C178.458 73.1977 179.973 74.3445 181.614 74.1179L181.204 71.1461ZM164.968 37.3492L164.558 34.3774C162.916 34.6041 161.769 36.1183 161.996 37.7596L164.968 37.3492ZM179.649 35.322L182.62 34.9117C182.394 33.2704 180.88 32.1236 179.238 32.3502L179.649 35.322ZM180.527 41.6817L180.937 44.6535C182.578 44.4268 183.725 42.9126 183.499 41.2713L180.527 41.6817ZM165.846 43.7089L162.874 44.1193C163.101 45.7605 164.615 46.9073 166.256 46.6807L165.846 43.7089ZM151.283 25.9742C154.369 25.5482 157.256 26.5702 159.642 29.0025C162.079 31.4858 164.05 35.527 164.815 41.0651L170.758 40.2444C169.865 33.7764 167.481 28.4251 163.925 24.8007C160.32 21.1251 155.579 19.3241 150.463 20.0306L151.283 25.9742ZM164.815 41.0651C165.589 46.6684 164.787 51.1236 163.116 54.1876C161.481 57.1868 158.98 58.9514 155.896 59.3773L156.717 65.3209C161.835 64.6141 165.911 61.5941 168.384 57.0604C170.821 52.5918 171.659 46.766 170.758 40.2444L164.815 41.0651ZM155.896 59.3773C152.778 59.8078 149.895 58.783 147.52 56.3447C145.089 53.8497 143.123 49.7773 142.348 44.1675L136.404 44.9882C137.304 51.5034 139.672 56.887 143.222 60.5315C146.828 64.2329 151.573 66.0311 156.717 65.3209L155.896 59.3773ZM142.348 44.1675C141.582 38.623 142.373 34.2008 144.038 31.1539C145.665 28.1745 148.164 26.405 151.283 25.9742L150.463 20.0306C145.32 20.7407 141.242 23.7559 138.772 28.2775C136.339 32.7316 135.512 38.5267 136.404 44.9882L142.348 44.1675ZM151.456 27.2224C148.165 27.6767 145.871 29.9085 144.687 32.9528C143.553 35.8711 143.358 39.642 143.953 43.9459L149.896 43.1252C149.374 39.3458 149.66 36.7209 150.28 35.1269C150.85 33.6588 151.585 33.2615 152.276 33.166L151.456 27.2224ZM143.953 43.9459C144.555 48.3042 145.767 51.9198 147.647 54.448C149.604 57.0815 152.42 58.6458 155.732 58.1886L154.911 52.2449C154.24 52.3376 153.424 52.1624 152.462 50.8684C151.422 49.469 150.427 46.969 149.896 43.1252L143.953 43.9459ZM155.732 58.1886C159.064 57.7285 161.358 55.4679 162.526 52.3862C163.641 49.4419 163.81 45.6348 163.21 41.2867L157.266 42.1075C157.799 45.9616 157.53 48.6352 156.915 50.2607C156.351 51.7487 155.621 52.1469 154.911 52.2449L155.732 58.1886ZM163.21 41.2867C162.617 36.9932 161.426 33.413 159.551 30.9075C157.585 28.2815 154.766 26.7652 151.456 27.2224L152.276 33.166C153.007 33.0651 153.816 33.2586 154.747 34.5027C155.769 35.8674 156.743 38.3177 157.266 42.1075L163.21 41.2867ZM173.989 18.9018L181.835 17.8184L181.014 11.8748L173.169 12.9582L173.989 18.9018ZM178.453 15.257L186.077 70.4731L192.021 69.6523L184.396 14.4363L178.453 15.257ZM188.639 67.0909L180.793 68.1743L181.614 74.1179L189.459 73.0345L188.639 67.0909ZM184.175 70.7357L176.551 15.5196L170.607 16.3404L178.232 71.5564L184.175 70.7357ZM165.378 40.321L180.059 38.2938L179.238 32.3502L164.558 34.3774L165.378 40.321ZM176.677 35.7324L177.555 42.0921L183.499 41.2713L182.62 34.9117L176.677 35.7324ZM180.116 38.7099L165.436 40.7371L166.256 46.6807L180.937 44.6535L180.116 38.7099ZM168.818 43.2985L167.94 36.9389L161.996 37.7596L162.874 44.1193L168.818 43.2985Z" fill="#90A3FD" mask="url(#path-5-outside-3_103_267)"/>
</g>
<g filter="url(#filter3_d_103_267)">
<mask id="path-7-outside-4_103_267" maskUnits="userSpaceOnUse" x="187.529" y="16.3769" width="65.9551" height="68.4303" fill="black">
<rect fill="white" x="187.529" y="16.3769" width="65.9551" height="68.4303"/>
<path d="M204.285 20.8564L245.14 27.5534L244.179 33.4152L203.324 26.7181L204.285 20.8564ZM202.593 33.7728L242.619 40.334L241.658 46.1958L201.632 39.6346L202.593 33.7728ZM210.893 24.3108L218.768 25.6017L216.419 39.9305L208.544 38.6396L210.893 24.3108ZM229.9 27.4264L237.774 28.7173L235.426 43.0461L227.551 41.7552L229.9 27.4264ZM196.43 41.7002L245.988 49.824L244.979 55.9818L195.42 47.858L196.43 41.7002ZM200.609 51.8095L238.504 58.0212L236.271 71.6395L206.193 66.7089L205.358 71.8009L197.602 70.5295L199.3 60.1678L229.379 65.0983L229.825 62.3747L199.687 57.4344L200.609 51.8095ZM197.961 68.3387L237.217 74.7737L236.275 80.517L197.019 74.0821L197.961 68.3387Z"/>
</mask>
<path d="M204.285 20.8564L245.14 27.5534L244.179 33.4152L203.324 26.7181L204.285 20.8564ZM202.593 33.7728L242.619 40.334L241.658 46.1958L201.632 39.6346L202.593 33.7728ZM210.893 24.3108L218.768 25.6017L216.419 39.9305L208.544 38.6396L210.893 24.3108ZM229.9 27.4264L237.774 28.7173L235.426 43.0461L227.551 41.7552L229.9 27.4264ZM196.43 41.7002L245.988 49.824L244.979 55.9818L195.42 47.858L196.43 41.7002ZM200.609 51.8095L238.504 58.0212L236.271 71.6395L206.193 66.7089L205.358 71.8009L197.602 70.5295L199.3 60.1678L229.379 65.0983L229.825 62.3747L199.687 57.4344L200.609 51.8095ZM197.961 68.3387L237.217 74.7737L236.275 80.517L197.019 74.0821L197.961 68.3387Z" fill="white"/>
<path d="M204.285 20.8564L204.77 17.8959C203.135 17.6279 201.592 18.7361 201.324 20.3711L204.285 20.8564ZM245.14 27.5534L248.1 28.0387C248.368 26.4037 247.26 24.8609 245.625 24.5929L245.14 27.5534ZM244.179 33.4152L243.694 36.3757C245.329 36.6437 246.871 35.5355 247.139 33.9005L244.179 33.4152ZM203.324 26.7181L200.364 26.2329C200.096 27.8679 201.204 29.4106 202.839 29.6786L203.324 26.7181ZM202.593 33.7728L203.079 30.8124C201.444 30.5443 199.901 31.6525 199.633 33.2875L202.593 33.7728ZM242.619 40.334L245.58 40.8193C245.848 39.1842 244.739 37.6415 243.104 37.3735L242.619 40.334ZM241.658 46.1958L241.173 49.1562C242.808 49.4243 244.351 48.3161 244.619 46.681L241.658 46.1958ZM201.632 39.6346L198.672 39.1493C198.404 40.7843 199.512 42.3271 201.147 42.5951L201.632 39.6346ZM210.893 24.3108L211.378 21.3504C209.743 21.0823 208.201 22.1905 207.933 23.8256L210.893 24.3108ZM218.768 25.6017L221.729 26.087C221.997 24.452 220.888 22.9093 219.253 22.6412L218.768 25.6017ZM216.419 39.9305L215.934 42.891C217.569 43.159 219.112 42.0508 219.38 40.4158L216.419 39.9305ZM208.544 38.6396L205.584 38.1543C205.316 39.7894 206.424 41.3321 208.059 41.6001L208.544 38.6396ZM229.9 27.4264L230.385 24.4659C228.75 24.1979 227.207 25.3061 226.939 26.9411L229.9 27.4264ZM237.774 28.7173L240.735 29.2026C241.003 27.5676 239.895 26.0248 238.26 25.7568L237.774 28.7173ZM235.426 43.0461L234.94 46.0066C236.575 46.2746 238.118 45.1664 238.386 43.5314L235.426 43.0461ZM227.551 41.7552L224.59 41.2699C224.322 42.9049 225.43 44.4477 227.065 44.7157L227.551 41.7552ZM196.43 41.7002L196.915 38.7397C195.28 38.4717 193.737 39.5799 193.469 41.2149L196.43 41.7002ZM245.988 49.824L248.949 50.3093C249.217 48.6743 248.109 47.1315 246.474 46.8635L245.988 49.824ZM244.979 55.9818L244.494 58.9423C246.129 59.2103 247.671 58.1021 247.939 56.4671L244.979 55.9818ZM195.42 47.858L192.46 47.3727C192.192 49.0078 193.3 50.5505 194.935 50.8185L195.42 47.858ZM200.609 51.8095L201.095 48.849C199.46 48.581 197.917 49.6892 197.649 51.3242L200.609 51.8095ZM238.504 58.0212L241.464 58.5065C241.732 56.8715 240.624 55.3288 238.989 55.0607L238.504 58.0212ZM236.271 71.6395L235.786 74.6C237.421 74.868 238.964 73.7598 239.232 72.1248L236.271 71.6395ZM206.193 66.7089L206.678 63.7484C205.043 63.4804 203.5 64.5886 203.232 66.2236L206.193 66.7089ZM205.358 71.8009L204.873 74.7614C206.508 75.0294 208.051 73.9213 208.319 72.2862L205.358 71.8009ZM197.602 70.5295L194.641 70.0442C194.373 71.6792 195.481 73.2219 197.116 73.49L197.602 70.5295ZM199.3 60.1678L199.785 57.2073C198.15 56.9393 196.608 58.0474 196.34 59.6825L199.3 60.1678ZM229.379 65.0983L228.893 68.0588C230.528 68.3268 232.071 67.2187 232.339 65.5836L229.379 65.0983ZM229.825 62.3747L232.786 62.86C233.054 61.2249 231.945 59.6822 230.31 59.4142L229.825 62.3747ZM199.687 57.4344L196.727 56.9491C196.459 58.5842 197.567 60.1269 199.202 60.3949L199.687 57.4344ZM197.961 68.3387L198.446 65.3782C196.811 65.1102 195.268 66.2184 195 67.8534L197.961 68.3387ZM237.217 74.7737L240.177 75.259C240.445 73.6239 239.337 72.0812 237.702 71.8132L237.217 74.7737ZM236.275 80.517L235.79 83.4775C237.425 83.7455 238.968 82.6374 239.236 81.0023L236.275 80.517ZM197.019 74.0821L194.059 73.5968C193.791 75.2318 194.899 76.7745 196.534 77.0426L197.019 74.0821ZM203.8 23.8169L244.654 30.5139L245.625 24.5929L204.77 17.8959L203.8 23.8169ZM242.179 27.0681L241.218 32.9299L247.139 33.9005L248.1 28.0387L242.179 27.0681ZM244.664 30.4547L203.809 23.7577L202.839 29.6786L243.694 36.3757L244.664 30.4547ZM206.285 27.2034L207.245 21.3417L201.324 20.3711L200.364 26.2329L206.285 27.2034ZM202.108 36.7333L242.134 43.2945L243.104 37.3735L203.079 30.8124L202.108 36.7333ZM239.659 39.8487L238.698 45.7105L244.619 46.681L245.58 40.8193L239.659 39.8487ZM242.143 43.2353L202.118 36.6741L201.147 42.5951L241.173 49.1562L242.143 43.2353ZM204.593 40.1199L205.554 34.2581L199.633 33.2875L198.672 39.1493L204.593 40.1199ZM210.408 27.2713L218.283 28.5622L219.253 22.6412L211.378 21.3504L210.408 27.2713ZM215.808 25.1164L213.459 39.4452L219.38 40.4158L221.729 26.087L215.808 25.1164ZM216.905 36.97L209.03 35.6791L208.059 41.6001L215.934 42.891L216.905 36.97ZM211.505 39.1249L213.854 24.7961L207.933 23.8256L205.584 38.1543L211.505 39.1249ZM229.414 30.3869L237.289 31.6778L238.26 25.7568L230.385 24.4659L229.414 30.3869ZM234.814 28.232L232.465 42.5608L238.386 43.5314L240.735 29.2026L234.814 28.232ZM235.911 40.0856L228.036 38.7947L227.065 44.7157L234.94 46.0066L235.911 40.0856ZM230.511 42.2405L232.86 27.9117L226.939 26.9411L224.59 41.2699L230.511 42.2405ZM195.944 44.6607L245.503 52.7845L246.474 46.8635L196.915 38.7397L195.944 44.6607ZM243.028 49.3387L242.018 55.4965L247.939 56.4671L248.949 50.3093L243.028 49.3387ZM245.464 53.0213L195.906 44.8975L194.935 50.8185L244.494 58.9423L245.464 53.0213ZM198.381 48.3433L199.39 42.1855L193.469 41.2149L192.46 47.3727L198.381 48.3433ZM200.124 54.77L238.018 60.9817L238.989 55.0607L201.095 48.849L200.124 54.77ZM235.543 57.5359L233.311 71.1542L239.232 72.1248L241.464 58.5065L235.543 57.5359ZM236.757 68.679L206.678 63.7484L205.707 69.6694L235.786 74.6L236.757 68.679ZM203.232 66.2236L202.398 71.3156L208.319 72.2862L209.153 67.1942L203.232 66.2236ZM205.843 68.8405L198.087 67.569L197.116 73.49L204.873 74.7614L205.843 68.8405ZM200.562 71.0148L202.261 60.6531L196.34 59.6825L194.641 70.0442L200.562 71.0148ZM198.815 63.1283L228.893 68.0588L229.864 62.1378L199.785 57.2073L198.815 63.1283ZM232.339 65.5836L232.786 62.86L226.865 61.8894L226.418 64.613L232.339 65.5836ZM230.31 59.4142L200.173 54.4739L199.202 60.3949L229.34 65.3352L230.31 59.4142ZM202.648 57.9197L203.57 52.2948L197.649 51.3242L196.727 56.9491L202.648 57.9197ZM197.475 71.2992L236.732 77.7342L237.702 71.8132L198.446 65.3782L197.475 71.2992ZM234.256 74.2884L233.315 80.0317L239.236 81.0023L240.177 75.259L234.256 74.2884ZM236.761 77.5565L197.505 71.1216L196.534 77.0426L235.79 83.4775L236.761 77.5565ZM199.98 74.5674L200.921 68.824L195 67.8534L194.059 73.5968L199.98 74.5674Z" fill="#FDBDDB" mask="url(#path-7-outside-4_103_267)"/>
</g>
<defs>
<filter id="filter0_d_103_267" x="10.2383" y="12.0757" width="69.5754" height="72.3075" filterUnits="userSpaceOnUse" color-interpolation-filters="sRGB">
<feFlood flood-opacity="0" result="BackgroundImageFix"/>
<feColorMatrix in="SourceAlpha" type="matrix" values="0 0 0 0 0 0 0 0 0 0 0 0 0 0 0 0 0 0 127 0" result="hardAlpha"/>
<feOffset dy="4"/>
<feGaussianBlur stdDeviation="2"/>
<feComposite in2="hardAlpha" operator="out"/>
<feColorMatrix type="matrix" values="0 0 0 0 0 0 0 0 0 0 0 0 0 0 0 0 0 0 0.25 0"/>
<feBlend mode="normal" in2="BackgroundImageFix" result="effect1_dropShadow_103_267"/>
<feBlend mode="normal" in="SourceGraphic" in2="effect1_dropShadow_103_267" result="shape"/>
</filter>
<filter id="filter1_d_103_267" x="67.1135" y="21.1284" width="66.436" height="70.4658" filterUnits="userSpaceOnUse" color-interpolation-filters="sRGB">
<feFlood flood-opacity="0" result="BackgroundImageFix"/>
<feColorMatrix in="SourceAlpha" type="matrix" values="0 0 0 0 0 0 0 0 0 0 0 0 0 0 0 0 0 0 127 0" result="hardAlpha"/>
<feOffset dy="4"/>
<feGaussianBlur stdDeviation="2"/>
<feComposite in2="hardAlpha" operator="out"/>
<feColorMatrix type="matrix" values="0 0 0 0 0 0 0 0 0 0 0 0 0 0 0 0 0 0 0.25 0"/>
<feBlend mode="normal" in2="BackgroundImageFix" result="effect1_dropShadow_103_267"/>
<feBlend mode="normal" in="SourceGraphic" in2="effect1_dropShadow_103_267" result="shape"/>
</filter>
<filter id="filter2_d_103_267" x="132.134" y="14.8467" width="60.9148" height="69.47" filterUnits="userSpaceOnUse" color-interpolation-filters="sRGB">
<feFlood flood-opacity="0" result="BackgroundImageFix"/>
<feColorMatrix in="SourceAlpha" type="matrix" values="0 0 0 0 0 0 0 0 0 0 0 0 0 0 0 0 0 0 127 0" result="hardAlpha"/>
<feOffset dy="4"/>
<feGaussianBlur stdDeviation="2"/>
<feComposite in2="hardAlpha" operator="out"/>
<feColorMatrix type="matrix" values="0 0 0 0 0 0 0 0 0 0 0 0 0 0 0 0 0 0 0.25 0"/>
<feBlend mode="normal" in2="BackgroundImageFix" result="effect1_dropShadow_103_267"/>
<feBlend mode="normal" in="SourceGraphic" in2="effect1_dropShadow_103_267" result="shape"/>
</filter>
<filter id="filter3_d_103_267" x="187.276" y="20.1478" width="66.2454" height="69.1166" filterUnits="userSpaceOnUse" color-interpolation-filters="sRGB">
<feFlood flood-opacity="0" result="BackgroundImageFix"/>
<feColorMatrix in="SourceAlpha" type="matrix" values="0 0 0 0 0 0 0 0 0 0 0 0 0 0 0 0 0 0 127 0" result="hardAlpha"/>
<feOffset dy="4"/>
<feGaussianBlur stdDeviation="2"/>
<feComposite in2="hardAlpha" operator="out"/>
<feColorMatrix type="matrix" values="0 0 0 0 0 0 0 0 0 0 0 0 0 0 0 0 0 0 0.25 0"/>
<feBlend mode="normal" in2="BackgroundImageFix" result="effect1_dropShadow_103_267"/>
<feBlend mode="normal" in="SourceGraphic" in2="effect1_dropShadow_103_267" result="shape"/>
</filter>
</defs>
</svg>
