<svg width="166" height="166" viewBox="0 0 166 166" fill="none" xmlns="http://www.w3.org/2000/svg">
<path d="M83.0721 158.617L62.4081 137.953H31.4121C28.6569 137.953 26.2461 136.891 24.1797 134.767C22.1133 132.643 21.0801 130.261 21.0801 127.621V24.3007C21.0801 21.5455 22.1133 19.1347 24.1797 17.0683C26.2461 15.002 28.6569 13.9688 31.4121 13.9688H134.732C137.372 13.9688 139.755 15.002 141.878 17.0683C144.002 19.1347 145.064 21.5455 145.064 24.3007V127.621C145.064 130.261 144.002 132.643 141.878 134.767C139.755 136.891 137.372 137.953 134.732 137.953H103.736L83.0721 158.617ZM31.4121 127.621H66.5409L83.0721 144.152L99.6033 127.621H134.732V24.3007H31.4121V127.621ZM82.5603 114.189C84.3939 114.189 85.9421 113.556 87.2049 112.29C88.4677 111.024 89.0991 109.474 89.0991 107.641C89.0991 105.807 88.4661 104.259 87.2001 102.996C85.934 101.733 84.3842 101.102 82.5507 101.102C80.7171 101.102 79.1689 101.735 77.9061 103.001C76.6433 104.267 76.0119 105.817 76.0119 107.65C76.0119 109.484 76.6449 111.032 77.9109 112.295C79.1769 113.558 80.7267 114.189 82.5603 114.189ZM86.6883 88.7035C86.6883 85.1447 87.2623 82.246 88.4103 80.0074C89.5583 77.7688 91.5513 75.2306 94.3892 72.3926C98.2097 68.5722 100.866 65.1982 102.358 62.2708C103.851 59.3434 104.597 56.2725 104.597 53.0581C104.597 46.9737 102.645 42.1521 98.7423 38.5933C94.8391 35.0345 89.5857 33.2551 82.982 33.2551C77.0278 33.2551 71.9668 34.6614 67.799 37.474C63.631 40.2866 60.5713 44.1611 58.6197 49.0975L67.7463 52.8859C69.3535 49.6716 71.4314 47.232 73.9799 45.5674C76.5285 43.9028 79.5018 43.0705 82.8999 43.0705C86.5735 43.0705 89.4722 43.9889 91.596 45.8257C93.7198 47.6625 94.7817 50.1938 94.7817 53.4194C94.7817 55.7042 94.1503 57.9084 92.8875 60.0322C91.6247 62.156 89.5009 64.653 86.5161 67.5229C82.2685 71.5409 79.5994 74.9849 78.5088 77.8549C77.4182 80.7249 76.8729 84.3411 76.8729 88.7035H86.6883Z" fill="black"/>
</svg>
