<svg width="172" height="85" viewBox="0 0 172 85" fill="none" xmlns="http://www.w3.org/2000/svg">
<g clip-path="url(#clip0_148_1028)">
<mask id="path-1-outside-1_148_1028" maskUnits="userSpaceOnUse" x="7" y="4" width="155" height="76" fill="black">
<rect fill="white" x="7" y="4" width="155" height="76"/>
<path d="M48.1978 25.09H60.5178V32.65H48.1978V25.09ZM57.9978 9.41H67.3078V47.91H57.9978V9.41ZM45.3278 49.31C59.0478 49.31 67.5178 54 67.5178 61.84C67.5178 69.75 59.0478 74.3 45.3278 74.3C31.6078 74.3 23.1378 69.75 23.1378 61.84C23.1378 54 31.6078 49.31 45.3278 49.31ZM45.3278 56.38C36.9278 56.38 32.4478 58.13 32.4478 61.84C32.4478 65.48 36.9278 67.23 45.3278 67.23C53.7978 67.23 58.2778 65.48 58.2778 61.84C58.2778 58.13 53.7978 56.38 45.3278 56.38ZM28.0378 15.92H35.5978V19.98C35.5978 32.37 29.8578 43.71 17.4678 47.91L12.7078 40.56C23.4178 36.92 28.0378 28.31 28.0378 19.98V15.92ZM29.9978 15.92H37.4878V19.98C37.4878 27.61 41.8978 35.52 52.1178 38.95L47.5678 46.3C35.5278 42.31 29.9978 31.53 29.9978 19.98V15.92ZM15.2278 13.33H50.0878V20.75H15.2278V13.33ZM119.172 9.41H128.482V44.13H119.172V9.41ZM125.892 23.34H137.092V30.9H125.892V23.34ZM79.9023 35.17H85.2923C99.3623 35.17 106.362 34.82 114.132 33.21L115.042 40.56C107.132 42.31 99.7123 42.66 85.2923 42.66H79.9023V35.17ZM79.9023 13.26H108.672V20.68H89.1423V40.14H79.9023V13.26ZM86.1323 47.28H95.3723V53.16H119.242V47.28H128.482V73.46H86.1323V47.28ZM95.3723 60.37V66.04H119.242V60.37H95.3723ZM155.925 17.0909L154.956 52.7372H145.858L144.864 17.0909H155.925ZM150.407 68.6463C148.766 68.6463 147.358 68.0663 146.181 66.9062C145.004 65.7296 144.424 64.321 144.441 62.6804C144.424 61.0563 145.004 59.6643 146.181 58.5043C147.358 57.3442 148.766 56.7642 150.407 56.7642C151.981 56.7642 153.365 57.3442 154.558 58.5043C155.751 59.6643 156.356 61.0563 156.373 62.6804C156.356 63.7741 156.066 64.7768 155.503 65.6882C154.956 66.5831 154.235 67.304 153.34 67.8509C152.445 68.3812 151.468 68.6463 150.407 68.6463Z"/>
</mask>
<path d="M48.1978 25.09H60.5178V32.65H48.1978V25.09ZM57.9978 9.41H67.3078V47.91H57.9978V9.41ZM45.3278 49.31C59.0478 49.31 67.5178 54 67.5178 61.84C67.5178 69.75 59.0478 74.3 45.3278 74.3C31.6078 74.3 23.1378 69.75 23.1378 61.84C23.1378 54 31.6078 49.31 45.3278 49.31ZM45.3278 56.38C36.9278 56.38 32.4478 58.13 32.4478 61.84C32.4478 65.48 36.9278 67.23 45.3278 67.23C53.7978 67.23 58.2778 65.48 58.2778 61.84C58.2778 58.13 53.7978 56.38 45.3278 56.38ZM28.0378 15.92H35.5978V19.98C35.5978 32.37 29.8578 43.71 17.4678 47.91L12.7078 40.56C23.4178 36.92 28.0378 28.31 28.0378 19.98V15.92ZM29.9978 15.92H37.4878V19.98C37.4878 27.61 41.8978 35.52 52.1178 38.95L47.5678 46.3C35.5278 42.31 29.9978 31.53 29.9978 19.98V15.92ZM15.2278 13.33H50.0878V20.75H15.2278V13.33ZM119.172 9.41H128.482V44.13H119.172V9.41ZM125.892 23.34H137.092V30.9H125.892V23.34ZM79.9023 35.17H85.2923C99.3623 35.17 106.362 34.82 114.132 33.21L115.042 40.56C107.132 42.31 99.7123 42.66 85.2923 42.66H79.9023V35.17ZM79.9023 13.26H108.672V20.68H89.1423V40.14H79.9023V13.26ZM86.1323 47.28H95.3723V53.16H119.242V47.28H128.482V73.46H86.1323V47.28ZM95.3723 60.37V66.04H119.242V60.37H95.3723ZM155.925 17.0909L154.956 52.7372H145.858L144.864 17.0909H155.925ZM150.407 68.6463C148.766 68.6463 147.358 68.0663 146.181 66.9062C145.004 65.7296 144.424 64.321 144.441 62.6804C144.424 61.0563 145.004 59.6643 146.181 58.5043C147.358 57.3442 148.766 56.7642 150.407 56.7642C151.981 56.7642 153.365 57.3442 154.558 58.5043C155.751 59.6643 156.356 61.0563 156.373 62.6804C156.356 63.7741 156.066 64.7768 155.503 65.6882C154.956 66.5831 154.235 67.304 153.34 67.8509C152.445 68.3812 151.468 68.6463 150.407 68.6463Z" fill="#76D566"/>
<path d="M48.1978 25.09V20.09C45.4364 20.09 43.1978 22.3286 43.1978 25.09H48.1978ZM60.5178 25.09H65.5178C65.5178 22.3286 63.2792 20.09 60.5178 20.09V25.09ZM60.5178 32.65V37.65C63.2792 37.65 65.5178 35.4114 65.5178 32.65H60.5178ZM48.1978 32.65H43.1978C43.1978 35.4114 45.4364 37.65 48.1978 37.65V32.65ZM57.9978 9.41V4.41C55.2364 4.41 52.9978 6.64858 52.9978 9.41H57.9978ZM67.3078 9.41H72.3078C72.3078 6.64858 70.0692 4.41 67.3078 4.41V9.41ZM67.3078 47.91V52.91C70.0692 52.91 72.3078 50.6714 72.3078 47.91H67.3078ZM57.9978 47.91H52.9978C52.9978 50.6714 55.2364 52.91 57.9978 52.91V47.91ZM28.0378 15.92V10.92C25.2764 10.92 23.0378 13.1586 23.0378 15.92H28.0378ZM35.5978 15.92H40.5978C40.5978 13.1586 38.3592 10.92 35.5978 10.92V15.92ZM17.4678 47.91L13.271 50.6279C14.5153 52.5492 16.9052 53.3802 19.073 52.6453L17.4678 47.91ZM12.7078 40.56L11.0989 35.8259C9.63933 36.322 8.4902 37.4635 7.98451 38.9198C7.47882 40.376 7.67309 41.984 8.51103 43.2779L12.7078 40.56ZM29.9978 15.92V10.92C27.2364 10.92 24.9978 13.1586 24.9978 15.92H29.9978ZM37.4878 15.92H42.4878C42.4878 13.1586 40.2492 10.92 37.4878 10.92V15.92ZM52.1178 38.95L56.3691 41.5818C57.1729 40.2834 57.3393 38.689 56.8209 37.2527C56.3026 35.8164 55.1563 34.6957 53.7087 34.2098L52.1178 38.95ZM47.5678 46.3L45.995 51.0462C48.1917 51.7742 50.601 50.8995 51.8191 48.9318L47.5678 46.3ZM15.2278 13.33V8.33C12.4664 8.33 10.2278 10.5686 10.2278 13.33H15.2278ZM50.0878 13.33H55.0878C55.0878 10.5686 52.8492 8.33 50.0878 8.33V13.33ZM50.0878 20.75V25.75C52.8492 25.75 55.0878 23.5114 55.0878 20.75H50.0878ZM15.2278 20.75H10.2278C10.2278 23.5114 12.4664 25.75 15.2278 25.75V20.75ZM48.1978 30.09H60.5178V20.09H48.1978V30.09ZM55.5178 25.09V32.65H65.5178V25.09H55.5178ZM60.5178 27.65H48.1978V37.65H60.5178V27.65ZM53.1978 32.65V25.09H43.1978V32.65H53.1978ZM57.9978 14.41H67.3078V4.41H57.9978V14.41ZM62.3078 9.41V47.91H72.3078V9.41H62.3078ZM67.3078 42.91H57.9978V52.91H67.3078V42.91ZM62.9978 47.91V9.41H52.9978V47.91H62.9978ZM45.3278 54.31C51.7265 54.31 56.3173 55.4207 59.1193 56.9945C61.7238 58.4573 62.5178 60.0942 62.5178 61.84H72.5178C72.5178 55.7458 69.0768 51.1177 64.0163 48.2755C59.1534 45.5443 52.6491 44.31 45.3278 44.31V54.31ZM62.5178 61.84C62.5178 63.6224 61.7233 65.232 59.1421 66.6641C56.3426 68.2172 51.749 69.3 45.3278 69.3V79.3C52.6266 79.3 59.128 78.1078 63.9935 75.4084C69.0773 72.588 72.5178 67.9676 72.5178 61.84H62.5178ZM45.3278 69.3C38.9066 69.3 34.313 68.2172 31.5135 66.6641C28.9323 65.232 28.1378 63.6224 28.1378 61.84H18.1378C18.1378 67.9676 21.5783 72.588 26.6621 75.4084C31.5276 78.1078 38.029 79.3 45.3278 79.3V69.3ZM28.1378 61.84C28.1378 60.0942 28.9318 58.4573 31.5363 56.9945C34.3384 55.4207 38.9291 54.31 45.3278 54.31V44.31C38.0065 44.31 31.5023 45.5443 26.6393 48.2755C21.5788 51.1177 18.1378 55.7458 18.1378 61.84H28.1378ZM45.3278 51.38C40.9301 51.38 36.9135 51.8164 33.82 53.1012C32.2248 53.7637 30.6119 54.7592 29.382 56.2892C28.0883 57.8986 27.4478 59.8198 27.4478 61.84H37.4478C37.4478 62.0052 37.3674 62.3164 37.1761 62.5543C37.0488 62.7127 37.0808 62.5751 37.6556 62.3363C38.9022 61.8186 41.3255 61.38 45.3278 61.38V51.38ZM27.4478 61.84C27.4478 63.8668 28.1036 65.783 29.4043 67.3779C30.6375 68.89 32.2487 69.8713 33.8359 70.5242C36.9201 71.7926 40.9271 72.23 45.3278 72.23V62.23C41.3286 62.23 38.8955 61.7924 37.6397 61.2758C37.057 61.0362 37.0231 60.8975 37.1539 61.0578C37.352 61.3007 37.4478 61.6332 37.4478 61.84H27.4478ZM45.3278 72.23C49.76 72.23 53.7829 71.7933 56.8744 70.5268C58.4656 69.875 60.0808 68.8946 61.3172 67.3816C62.6217 65.7852 63.2778 63.8671 63.2778 61.84H53.2778C53.2778 61.6329 53.3739 61.2985 53.5737 61.054C53.7054 60.8929 53.6713 61.0325 53.0837 61.2732C51.8178 61.7917 49.3656 62.23 45.3278 62.23V72.23ZM63.2778 61.84C63.2778 59.8194 62.6371 57.8964 61.3395 56.2854C60.1065 54.7545 58.4894 53.7599 56.8903 53.0984C53.7895 51.8158 49.7569 51.38 45.3278 51.38V61.38C49.3687 61.38 51.8112 61.8192 53.0679 62.3391C53.6475 62.5788 53.6798 62.7174 53.5514 62.5581C53.3586 62.3186 53.2778 62.0056 53.2778 61.84H63.2778ZM28.0378 20.92H35.5978V10.92H28.0378V20.92ZM30.5978 15.92V19.98H40.5978V15.92H30.5978ZM30.5978 19.98C30.5978 30.8814 25.6659 39.8515 15.8626 43.1747L19.073 52.6453C34.0497 47.5685 40.5978 33.8586 40.5978 19.98H30.5978ZM21.6646 45.1921L16.9046 37.8421L8.51103 43.2779L13.271 50.6279L21.6646 45.1921ZM14.3168 45.2941C27.2228 40.9077 33.0378 30.2677 33.0378 19.98H23.0378C23.0378 26.3523 19.6128 32.9323 11.0989 35.8259L14.3168 45.2941ZM33.0378 19.98V15.92H23.0378V19.98H33.0378ZM29.9978 20.92H37.4878V10.92H29.9978V20.92ZM32.4878 15.92V19.98H42.4878V15.92H32.4878ZM32.4878 19.98C32.4878 29.699 38.2144 39.5579 50.5269 43.6902L53.7087 34.2098C45.5812 31.4821 42.4878 25.521 42.4878 19.98H32.4878ZM47.8665 36.3182L43.3165 43.6682L51.8191 48.9318L56.3691 41.5818L47.8665 36.3182ZM49.1407 41.5538C39.6555 38.4105 34.9978 29.9641 34.9978 19.98H24.9978C24.9978 33.0959 31.4001 46.2095 45.995 51.0462L49.1407 41.5538ZM34.9978 19.98V15.92H24.9978V19.98H34.9978ZM15.2278 18.33H50.0878V8.33H15.2278V18.33ZM45.0878 13.33V20.75H55.0878V13.33H45.0878ZM50.0878 15.75H15.2278V25.75H50.0878V15.75ZM20.2278 20.75V13.33H10.2278V20.75H20.2278ZM119.172 9.41V4.41C116.411 4.41 114.172 6.64858 114.172 9.41H119.172ZM128.482 9.41H133.482C133.482 6.64858 131.244 4.41 128.482 4.41V9.41ZM128.482 44.13V49.13C131.244 49.13 133.482 46.8914 133.482 44.13H128.482ZM119.172 44.13H114.172C114.172 46.8914 116.411 49.13 119.172 49.13V44.13ZM125.892 23.34V18.34C123.131 18.34 120.892 20.5786 120.892 23.34H125.892ZM137.092 23.34H142.092C142.092 20.5786 139.854 18.34 137.092 18.34V23.34ZM137.092 30.9V35.9C139.854 35.9 142.092 33.6614 142.092 30.9H137.092ZM125.892 30.9H120.892C120.892 33.6614 123.131 35.9 125.892 35.9V30.9ZM79.9023 35.17V30.17C77.1409 30.17 74.9023 32.4086 74.9023 35.17H79.9023ZM114.132 33.21L119.094 32.5956C118.923 31.2097 118.179 29.9587 117.044 29.1454C115.909 28.3321 114.485 28.0307 113.118 28.314L114.132 33.21ZM115.042 40.56L116.122 45.4419C118.64 44.8849 120.321 42.5047 120.004 39.9456L115.042 40.56ZM79.9023 42.66H74.9023C74.9023 45.4214 77.1409 47.66 79.9023 47.66V42.66ZM79.9023 13.26V8.26C77.1409 8.26 74.9023 10.4986 74.9023 13.26H79.9023ZM108.672 13.26H113.672C113.672 10.4986 111.434 8.26 108.672 8.26V13.26ZM108.672 20.68V25.68C111.434 25.68 113.672 23.4414 113.672 20.68H108.672ZM89.1423 20.68V15.68C86.3809 15.68 84.1423 17.9186 84.1423 20.68H89.1423ZM89.1423 40.14V45.14C91.9038 45.14 94.1423 42.9014 94.1423 40.14H89.1423ZM79.9023 40.14H74.9023C74.9023 42.9014 77.1409 45.14 79.9023 45.14V40.14ZM86.1323 47.28V42.28C83.3709 42.28 81.1323 44.5186 81.1323 47.28H86.1323ZM95.3723 47.28H100.372C100.372 44.5186 98.1338 42.28 95.3723 42.28V47.28ZM95.3723 53.16H90.3723C90.3723 55.9214 92.6109 58.16 95.3723 58.16V53.16ZM119.242 53.16V58.16C122.004 58.16 124.242 55.9214 124.242 53.16H119.242ZM119.242 47.28V42.28C116.481 42.28 114.242 44.5186 114.242 47.28H119.242ZM128.482 47.28H133.482C133.482 44.5186 131.244 42.28 128.482 42.28V47.28ZM128.482 73.46V78.46C131.244 78.46 133.482 76.2214 133.482 73.46H128.482ZM86.1323 73.46H81.1323C81.1323 76.2214 83.3709 78.46 86.1323 78.46V73.46ZM95.3723 60.37V55.37C92.6109 55.37 90.3723 57.6086 90.3723 60.37H95.3723ZM95.3723 66.04H90.3723C90.3723 68.8014 92.6109 71.04 95.3723 71.04V66.04ZM119.242 66.04V71.04C122.004 71.04 124.242 68.8014 124.242 66.04H119.242ZM119.242 60.37H124.242C124.242 57.6086 122.004 55.37 119.242 55.37V60.37ZM119.172 14.41H128.482V4.41H119.172V14.41ZM123.482 9.41V44.13H133.482V9.41H123.482ZM128.482 39.13H119.172V49.13H128.482V39.13ZM124.172 44.13V9.41H114.172V44.13H124.172ZM125.892 28.34H137.092V18.34H125.892V28.34ZM132.092 23.34V30.9H142.092V23.34H132.092ZM137.092 25.9H125.892V35.9H137.092V25.9ZM130.892 30.9V23.34H120.892V30.9H130.892ZM79.9023 40.17H85.2923V30.17H79.9023V40.17ZM85.2923 40.17C99.4033 40.17 106.841 39.8271 115.147 38.106L113.118 28.314C105.884 29.8129 99.3214 30.17 85.2923 30.17V40.17ZM109.17 33.8244L110.08 41.1744L120.004 39.9456L119.094 32.5956L109.17 33.8244ZM113.962 35.678C106.633 37.2995 99.6945 37.66 85.2923 37.66V47.66C99.7301 47.66 107.631 47.3205 116.122 45.4419L113.962 35.678ZM85.2923 37.66H79.9023V47.66H85.2923V37.66ZM84.9023 42.66V35.17H74.9023V42.66H84.9023ZM79.9023 18.26H108.672V8.26H79.9023V18.26ZM103.672 13.26V20.68H113.672V13.26H103.672ZM108.672 15.68H89.1423V25.68H108.672V15.68ZM84.1423 20.68V40.14H94.1423V20.68H84.1423ZM89.1423 35.14H79.9023V45.14H89.1423V35.14ZM84.9023 40.14V13.26H74.9023V40.14H84.9023ZM86.1323 52.28H95.3723V42.28H86.1323V52.28ZM90.3723 47.28V53.16H100.372V47.28H90.3723ZM95.3723 58.16H119.242V48.16H95.3723V58.16ZM124.242 53.16V47.28H114.242V53.16H124.242ZM119.242 52.28H128.482V42.28H119.242V52.28ZM123.482 47.28V73.46H133.482V47.28H123.482ZM128.482 68.46H86.1323V78.46H128.482V68.46ZM91.1323 73.46V47.28H81.1323V73.46H91.1323ZM90.3723 60.37V66.04H100.372V60.37H90.3723ZM95.3723 71.04H119.242V61.04H95.3723V71.04ZM124.242 66.04V60.37H114.242V66.04H124.242ZM119.242 55.37H95.3723V65.37H119.242V55.37ZM155.925 17.0909L160.924 17.2268C160.96 15.8777 160.45 14.571 159.509 13.6038C158.567 12.6365 157.275 12.0909 155.925 12.0909V17.0909ZM154.956 52.7372V57.7372C157.664 57.7372 159.88 55.5806 159.954 52.8731L154.956 52.7372ZM145.858 52.7372L140.86 52.8766C140.935 55.5827 143.151 57.7372 145.858 57.7372V52.7372ZM144.864 17.0909V12.0909C143.513 12.0909 142.221 12.637 141.279 13.605C140.338 14.573 139.828 15.8806 139.866 17.2303L144.864 17.0909ZM146.181 66.9062L142.646 70.4418C142.654 70.4501 142.662 70.4585 142.671 70.4668L146.181 66.9062ZM144.441 62.6804L149.441 62.7309C149.441 62.6971 149.441 62.6632 149.441 62.6294L144.441 62.6804ZM146.181 58.5043L149.691 62.0648L149.691 62.0648L146.181 58.5043ZM154.558 58.5043L151.073 62.0892L151.073 62.0892L154.558 58.5043ZM156.373 62.6804L161.372 62.7561C161.373 62.7139 161.373 62.6716 161.373 62.6294L156.373 62.6804ZM155.503 65.6882L151.25 63.0591C151.245 63.0664 151.241 63.0737 151.236 63.081L155.503 65.6882ZM153.34 67.8509L155.889 72.1523C155.909 72.1408 155.928 72.1291 155.947 72.1173L153.34 67.8509ZM150.927 16.955L149.958 52.6013L159.954 52.8731L160.924 17.2268L150.927 16.955ZM154.956 47.7372H145.858V57.7372H154.956V47.7372ZM150.856 52.5978L149.862 16.9515L139.866 17.2303L140.86 52.8766L150.856 52.5978ZM144.864 22.0909H155.925V12.0909H144.864V22.0909ZM150.407 63.6463C150.091 63.6463 149.94 63.5908 149.691 63.3457L142.671 70.4668C144.775 72.5418 147.442 73.6463 150.407 73.6463V63.6463ZM149.717 63.3707C149.552 63.2058 149.503 63.1032 149.487 63.0636C149.471 63.0254 149.439 62.9333 149.441 62.7309L139.441 62.6299C139.411 65.6354 140.534 68.3303 142.646 70.4418L149.717 63.3707ZM149.441 62.6294C149.439 62.4419 149.469 62.3653 149.479 62.3414C149.49 62.3157 149.531 62.2228 149.691 62.0648L142.671 54.9437C140.547 57.0372 139.411 59.7251 139.441 62.7314L149.441 62.6294ZM149.691 62.0648C149.94 61.8198 150.091 61.7642 150.407 61.7642V51.7642C147.442 51.7642 144.775 52.8687 142.671 54.9437L149.691 62.0648ZM150.407 61.7642C150.6 61.7642 150.754 61.7793 151.073 62.0892L158.044 54.9193C155.976 52.9091 153.363 51.7642 150.407 51.7642V61.7642ZM151.073 62.0892C151.248 62.2592 151.302 62.3676 151.321 62.411C151.339 62.4519 151.371 62.5403 151.373 62.7314L161.373 62.6294C161.342 59.6362 160.166 56.9827 158.044 54.9193L151.073 62.0892ZM151.373 62.6046C151.37 62.8153 151.328 62.9324 151.25 63.0591L159.756 68.3173C160.804 66.6211 161.342 64.733 161.372 62.7561L151.373 62.6046ZM151.236 63.081C151.103 63.299 150.951 63.4512 150.733 63.5844L155.947 72.1173C157.519 71.1568 158.809 69.8672 159.769 68.2955L151.236 63.081ZM150.791 63.5494C150.684 63.6131 150.589 63.6463 150.407 63.6463V73.6463C152.346 73.6463 154.207 73.1492 155.889 72.1523L150.791 63.5494Z" fill="white" mask="url(#path-1-outside-1_148_1028)"/>
</g>
<defs>
<clipPath id="clip0_148_1028">
<rect width="172" height="85" fill="white"/>
</clipPath>
</defs>
</svg>
