<svg width="279" height="100" viewBox="0 0 279 100" fill="none" xmlns="http://www.w3.org/2000/svg">
<g clip-path="url(#clip0_229_178)">
<mask id="path-1-outside-1_229_178" maskUnits="userSpaceOnUse" x="7" y="11" width="265" height="76" fill="black">
<rect fill="white" x="7" y="11" width="265" height="76"/>
<path d="M29.3309 21.38H36.8909V30.83C36.8909 47.49 31.1509 62.54 18.2709 68.49L12.7409 60.79C24.0109 55.89 29.3309 43.43 29.3309 30.83V21.38ZM31.1509 21.38H38.7109V30.83C38.7109 42.8 43.8209 54.7 54.8809 59.46L49.4209 66.95C36.8909 61.21 31.1509 46.79 31.1509 30.83V21.38ZM57.9609 16.34H67.3409V81.37H57.9609V16.34ZM119.555 16.41H128.935V62.82H119.555V16.41ZM126.275 34.47H137.545V42.1H126.275V34.47ZM101.495 21.24H111.435C111.435 38.88 100.655 50.99 81.3355 56.59L77.4155 49.17C93.3055 44.83 101.495 36.15 101.495 25.86V21.24ZM80.2155 21.24H106.535V28.73H80.2155V21.24ZM87.0055 72.69H131.105V80.11H87.0055V72.69ZM87.0055 58.13H96.3855V75.98H87.0055V58.13ZM142.37 66.32H201.03V73.88H142.37V66.32ZM167.01 53.86H176.32V70.24H167.01V53.86ZM166.94 29.92H175.2V31.32C175.2 43.71 165.33 53.72 147.55 56.03L144.19 48.68C159.94 46.79 166.94 38.74 166.94 31.32V29.92ZM168.2 29.92H176.39V31.32C176.39 38.74 183.39 46.79 199.14 48.68L195.78 56.03C178 53.72 168.2 43.71 168.2 31.32V29.92ZM147.34 25.16H195.99V32.65H147.34V25.16ZM167.01 17.25H176.32V28.24H167.01V17.25ZM209.425 22.85H237.355V30.2H209.425V22.85ZM217.755 41.4H226.925V63.38H217.755V41.4ZM233.645 22.85H242.815V28.1C242.815 34.4 242.815 42.24 241.065 53.02L231.965 52.18C233.645 41.82 233.645 34.33 233.645 28.1V22.85ZM248.345 16.41H257.655V81.23H248.345V16.41ZM254.925 42.45H266.335V50.15H254.925V42.45ZM206.975 68.14L206.135 60.65C217.545 60.65 232.665 60.44 245.405 58.83L245.895 65.62C232.805 67.86 218.245 68.14 206.975 68.14Z"/>
</mask>
<path d="M29.3309 21.38H36.8909V30.83C36.8909 47.49 31.1509 62.54 18.2709 68.49L12.7409 60.79C24.0109 55.89 29.3309 43.43 29.3309 30.83V21.38ZM31.1509 21.38H38.7109V30.83C38.7109 42.8 43.8209 54.7 54.8809 59.46L49.4209 66.95C36.8909 61.21 31.1509 46.79 31.1509 30.83V21.38ZM57.9609 16.34H67.3409V81.37H57.9609V16.34ZM119.555 16.41H128.935V62.82H119.555V16.41ZM126.275 34.47H137.545V42.1H126.275V34.47ZM101.495 21.24H111.435C111.435 38.88 100.655 50.99 81.3355 56.59L77.4155 49.17C93.3055 44.83 101.495 36.15 101.495 25.86V21.24ZM80.2155 21.24H106.535V28.73H80.2155V21.24ZM87.0055 72.69H131.105V80.11H87.0055V72.69ZM87.0055 58.13H96.3855V75.98H87.0055V58.13ZM142.37 66.32H201.03V73.88H142.37V66.32ZM167.01 53.86H176.32V70.24H167.01V53.86ZM166.94 29.92H175.2V31.32C175.2 43.71 165.33 53.72 147.55 56.03L144.19 48.68C159.94 46.79 166.94 38.74 166.94 31.32V29.92ZM168.2 29.92H176.39V31.32C176.39 38.74 183.39 46.79 199.14 48.68L195.78 56.03C178 53.72 168.2 43.71 168.2 31.32V29.92ZM147.34 25.16H195.99V32.65H147.34V25.16ZM167.01 17.25H176.32V28.24H167.01V17.25ZM209.425 22.85H237.355V30.2H209.425V22.85ZM217.755 41.4H226.925V63.38H217.755V41.4ZM233.645 22.85H242.815V28.1C242.815 34.4 242.815 42.24 241.065 53.02L231.965 52.18C233.645 41.82 233.645 34.33 233.645 28.1V22.85ZM248.345 16.41H257.655V81.23H248.345V16.41ZM254.925 42.45H266.335V50.15H254.925V42.45ZM206.975 68.14L206.135 60.65C217.545 60.65 232.665 60.44 245.405 58.83L245.895 65.62C232.805 67.86 218.245 68.14 206.975 68.14Z" fill="#FF6B00"/>
<path d="M29.3309 21.38V16.38C26.5695 16.38 24.3309 18.6186 24.3309 21.38H29.3309ZM36.8909 21.38H41.8909C41.8909 18.6186 39.6524 16.38 36.8909 16.38V21.38ZM18.2709 68.49L14.2098 71.4067C15.6081 73.3537 18.1916 74.0344 20.3678 73.0291L18.2709 68.49ZM12.7409 60.79L10.7473 56.2046C9.36128 56.8073 8.32221 58.0045 7.92065 59.4615C7.51909 60.9186 7.79814 62.4791 8.67977 63.7067L12.7409 60.79ZM31.1509 21.38V16.38C28.3895 16.38 26.1509 18.6186 26.1509 21.38H31.1509ZM38.7109 21.38H43.7109C43.7109 18.6186 41.4724 16.38 38.7109 16.38V21.38ZM54.8809 59.46L58.9214 62.4053C59.8172 61.1764 60.1051 59.6065 59.7035 58.1397C59.3019 56.6728 58.2545 55.4685 56.8576 54.8673L54.8809 59.46ZM49.4209 66.95L47.3385 71.4957C49.5004 72.4861 52.0606 71.8169 53.4614 69.8953L49.4209 66.95ZM57.9609 16.34V11.34C55.1995 11.34 52.9609 13.5786 52.9609 16.34H57.9609ZM67.3409 16.34H72.3409C72.3409 13.5786 70.1024 11.34 67.3409 11.34V16.34ZM67.3409 81.37V86.37C70.1024 86.37 72.3409 84.1314 72.3409 81.37H67.3409ZM57.9609 81.37H52.9609C52.9609 84.1314 55.1995 86.37 57.9609 86.37V81.37ZM29.3309 26.38H36.8909V16.38H29.3309V26.38ZM31.8909 21.38V30.83H41.8909V21.38H31.8909ZM31.8909 30.83C31.8909 46.7286 26.4133 59.2209 16.1741 63.9509L20.3678 73.0291C35.8886 65.8591 41.8909 48.2514 41.8909 30.83H31.8909ZM22.3321 65.5733L16.8021 57.8733L8.67977 63.7067L14.2098 71.4067L22.3321 65.5733ZM14.7346 65.3753C28.5262 59.379 34.3309 44.5313 34.3309 30.83H24.3309C24.3309 42.3287 19.4957 52.401 10.7473 56.2046L14.7346 65.3753ZM34.3309 30.83V21.38H24.3309V30.83H34.3309ZM31.1509 26.38H38.7109V16.38H31.1509V26.38ZM33.7109 21.38V30.83H43.7109V21.38H33.7109ZM33.7109 30.83C33.7109 43.9518 39.3414 58.2155 52.9043 64.0527L56.8576 54.8673C48.3005 51.1845 43.7109 41.6482 43.7109 30.83H33.7109ZM50.8405 56.5147L45.3805 64.0047L53.4614 69.8953L58.9214 62.4053L50.8405 56.5147ZM51.5033 62.4043C41.5735 57.8554 36.1509 45.9384 36.1509 30.83H26.1509C26.1509 47.6416 32.2084 64.5646 47.3385 71.4957L51.5033 62.4043ZM36.1509 30.83V21.38H26.1509V30.83H36.1509ZM57.9609 21.34H67.3409V11.34H57.9609V21.34ZM62.3409 16.34V81.37H72.3409V16.34H62.3409ZM67.3409 76.37H57.9609V86.37H67.3409V76.37ZM62.9609 81.37V16.34H52.9609V81.37H62.9609ZM119.555 16.41V11.41C116.794 11.41 114.555 13.6486 114.555 16.41H119.555ZM128.935 16.41H133.935C133.935 13.6486 131.697 11.41 128.935 11.41V16.41ZM128.935 62.82V67.82C131.697 67.82 133.935 65.5814 133.935 62.82H128.935ZM119.555 62.82H114.555C114.555 65.5814 116.794 67.82 119.555 67.82V62.82ZM126.275 34.47V29.47C123.514 29.47 121.275 31.7086 121.275 34.47H126.275ZM137.545 34.47H142.545C142.545 31.7086 140.307 29.47 137.545 29.47V34.47ZM137.545 42.1V47.1C140.307 47.1 142.545 44.8614 142.545 42.1H137.545ZM126.275 42.1H121.275C121.275 44.8614 123.514 47.1 126.275 47.1V42.1ZM101.495 21.24V16.24C98.734 16.24 96.4955 18.4786 96.4955 21.24H101.495ZM111.435 21.24H116.435C116.435 18.4786 114.197 16.24 111.435 16.24V21.24ZM81.3355 56.59L76.9145 58.9256C78.0221 61.0222 80.45 62.0525 82.7274 61.3923L81.3355 56.59ZM77.4155 49.17L76.0981 44.3467C74.6344 44.7464 73.4315 45.7892 72.828 47.1812C72.2245 48.5733 72.2858 50.1641 72.9945 51.5056L77.4155 49.17ZM80.2155 21.24V16.24C77.454 16.24 75.2155 18.4786 75.2155 21.24H80.2155ZM106.535 21.24H111.535C111.535 18.4786 109.297 16.24 106.535 16.24V21.24ZM106.535 28.73V33.73C109.297 33.73 111.535 31.4914 111.535 28.73H106.535ZM80.2155 28.73H75.2155C75.2155 31.4914 77.454 33.73 80.2155 33.73V28.73ZM87.0055 72.69V67.69C84.244 67.69 82.0055 69.9286 82.0055 72.69H87.0055ZM131.105 72.69H136.105C136.105 69.9286 133.867 67.69 131.105 67.69V72.69ZM131.105 80.11V85.11C133.867 85.11 136.105 82.8714 136.105 80.11H131.105ZM87.0055 80.11H82.0055C82.0055 82.8714 84.244 85.11 87.0055 85.11V80.11ZM87.0055 58.13V53.13C84.244 53.13 82.0055 55.3686 82.0055 58.13H87.0055ZM96.3855 58.13H101.385C101.385 55.3686 99.1469 53.13 96.3855 53.13V58.13ZM96.3855 75.98V80.98C99.1469 80.98 101.385 78.7414 101.385 75.98H96.3855ZM87.0055 75.98H82.0055C82.0055 78.7414 84.244 80.98 87.0055 80.98V75.98ZM119.555 21.41H128.935V11.41H119.555V21.41ZM123.935 16.41V62.82H133.935V16.41H123.935ZM128.935 57.82H119.555V67.82H128.935V57.82ZM124.555 62.82V16.41H114.555V62.82H124.555ZM126.275 39.47H137.545V29.47H126.275V39.47ZM132.545 34.47V42.1H142.545V34.47H132.545ZM137.545 37.1H126.275V47.1H137.545V37.1ZM131.275 42.1V34.47H121.275V42.1H131.275ZM101.495 26.24H111.435V16.24H101.495V26.24ZM106.435 21.24C106.435 28.9706 104.102 35.2207 99.8421 40.1668C95.5264 45.1772 88.9428 49.1792 79.9435 51.7877L82.7274 61.3923C93.0481 58.4008 101.515 53.5478 107.419 46.6931C113.378 39.7743 116.435 31.1494 116.435 21.24H106.435ZM85.7564 54.2544L81.8364 46.8344L72.9945 51.5056L76.9145 58.9256L85.7564 54.2544ZM78.7329 53.9933C95.5866 49.3901 106.495 39.4512 106.495 25.86H96.4955C96.4955 32.8488 91.0243 40.2699 76.0981 44.3467L78.7329 53.9933ZM106.495 25.86V21.24H96.4955V25.86H106.495ZM80.2155 26.24H106.535V16.24H80.2155V26.24ZM101.535 21.24V28.73H111.535V21.24H101.535ZM106.535 23.73H80.2155V33.73H106.535V23.73ZM85.2155 28.73V21.24H75.2155V28.73H85.2155ZM87.0055 77.69H131.105V67.69H87.0055V77.69ZM126.105 72.69V80.11H136.105V72.69H126.105ZM131.105 75.11H87.0055V85.11H131.105V75.11ZM92.0055 80.11V72.69H82.0055V80.11H92.0055ZM87.0055 63.13H96.3855V53.13H87.0055V63.13ZM91.3855 58.13V75.98H101.385V58.13H91.3855ZM96.3855 70.98H87.0055V80.98H96.3855V70.98ZM92.0055 75.98V58.13H82.0055V75.98H92.0055ZM142.37 66.32V61.32C139.609 61.32 137.37 63.5586 137.37 66.32H142.37ZM201.03 66.32H206.03C206.03 63.5586 203.791 61.32 201.03 61.32V66.32ZM201.03 73.88V78.88C203.791 78.88 206.03 76.6414 206.03 73.88H201.03ZM142.37 73.88H137.37C137.37 76.6414 139.609 78.88 142.37 78.88V73.88ZM167.01 53.86V48.86C164.249 48.86 162.01 51.0986 162.01 53.86H167.01ZM176.32 53.86H181.32C181.32 51.0986 179.081 48.86 176.32 48.86V53.86ZM176.32 70.24V75.24C179.081 75.24 181.32 73.0014 181.32 70.24H176.32ZM167.01 70.24H162.01C162.01 73.0014 164.249 75.24 167.01 75.24V70.24ZM166.94 29.92V24.92C164.179 24.92 161.94 27.1586 161.94 29.92H166.94ZM175.2 29.92H180.2C180.2 27.1586 177.961 24.92 175.2 24.92V29.92ZM147.55 56.03L143.003 58.1088C143.914 60.1033 146.019 61.2709 148.194 60.9883L147.55 56.03ZM144.19 48.68L143.594 43.7156C142.009 43.9058 140.611 44.8413 139.829 46.2335C139.048 47.6256 138.979 49.307 139.643 50.7588L144.19 48.68ZM168.2 29.92V24.92C165.439 24.92 163.2 27.1586 163.2 29.92H168.2ZM176.39 29.92H181.39C181.39 27.1586 179.151 24.92 176.39 24.92V29.92ZM199.14 48.68L203.687 50.7588C204.351 49.307 204.282 47.6256 203.501 46.2335C202.719 44.8413 201.321 43.9058 199.736 43.7156L199.14 48.68ZM195.78 56.03L195.136 60.9883C197.311 61.2709 199.416 60.1033 200.327 58.1088L195.78 56.03ZM147.34 25.16V20.16C144.579 20.16 142.34 22.3986 142.34 25.16H147.34ZM195.99 25.16H200.99C200.99 22.3986 198.751 20.16 195.99 20.16V25.16ZM195.99 32.65V37.65C198.751 37.65 200.99 35.4114 200.99 32.65H195.99ZM147.34 32.65H142.34C142.34 35.4114 144.579 37.65 147.34 37.65V32.65ZM167.01 17.25V12.25C164.249 12.25 162.01 14.4886 162.01 17.25H167.01ZM176.32 17.25H181.32C181.32 14.4886 179.081 12.25 176.32 12.25V17.25ZM176.32 28.24V33.24C179.081 33.24 181.32 31.0014 181.32 28.24H176.32ZM167.01 28.24H162.01C162.01 31.0014 164.249 33.24 167.01 33.24V28.24ZM142.37 71.32H201.03V61.32H142.37V71.32ZM196.03 66.32V73.88H206.03V66.32H196.03ZM201.03 68.88H142.37V78.88H201.03V68.88ZM147.37 73.88V66.32H137.37V73.88H147.37ZM167.01 58.86H176.32V48.86H167.01V58.86ZM171.32 53.86V70.24H181.32V53.86H171.32ZM176.32 65.24H167.01V75.24H176.32V65.24ZM172.01 70.24V53.86H162.01V70.24H172.01ZM166.94 34.92H175.2V24.92H166.94V34.92ZM170.2 29.92V31.32H180.2V29.92H170.2ZM170.2 31.32C170.2 40.3361 163.156 48.9605 146.906 51.0717L148.194 60.9883C167.504 58.4795 180.2 47.0839 180.2 31.32H170.2ZM152.097 53.9512L148.737 46.6012L139.643 50.7588L143.003 58.1088L152.097 53.9512ZM144.786 53.6444C161.734 51.6106 171.94 42.4032 171.94 31.32H161.94C161.94 35.0768 158.146 41.9694 143.594 43.7156L144.786 53.6444ZM171.94 31.32V29.92H161.94V31.32H171.94ZM168.2 34.92H176.39V24.92H168.2V34.92ZM171.39 29.92V31.32H181.39V29.92H171.39ZM171.39 31.32C171.39 42.4032 181.596 51.6106 198.544 53.6444L199.736 43.7156C185.184 41.9694 181.39 35.0768 181.39 31.32H171.39ZM194.593 46.6012L191.233 53.9512L200.327 58.1088L203.687 50.7588L194.593 46.6012ZM196.424 51.0717C188.302 50.0164 182.461 47.2613 178.725 43.7915C175.051 40.3791 173.2 36.098 173.2 31.32H163.2C163.2 38.932 166.249 45.8509 171.92 51.1185C177.529 56.3287 185.478 59.7336 195.136 60.9883L196.424 51.0717ZM173.2 31.32V29.92H163.2V31.32H173.2ZM147.34 30.16H195.99V20.16H147.34V30.16ZM190.99 25.16V32.65H200.99V25.16H190.99ZM195.99 27.65H147.34V37.65H195.99V27.65ZM152.34 32.65V25.16H142.34V32.65H152.34ZM167.01 22.25H176.32V12.25H167.01V22.25ZM171.32 17.25V28.24H181.32V17.25H171.32ZM176.32 23.24H167.01V33.24H176.32V23.24ZM172.01 28.24V17.25H162.01V28.24H172.01ZM209.425 22.85V17.85C206.663 17.85 204.425 20.0886 204.425 22.85H209.425ZM237.355 22.85H242.355C242.355 20.0886 240.116 17.85 237.355 17.85V22.85ZM237.355 30.2V35.2C240.116 35.2 242.355 32.9614 242.355 30.2H237.355ZM209.425 30.2H204.425C204.425 32.9614 206.663 35.2 209.425 35.2V30.2ZM217.755 41.4V36.4C214.993 36.4 212.755 38.6386 212.755 41.4H217.755ZM226.925 41.4H231.925C231.925 38.6386 229.686 36.4 226.925 36.4V41.4ZM226.925 63.38V68.38C229.686 68.38 231.925 66.1414 231.925 63.38H226.925ZM217.755 63.38H212.755C212.755 66.1414 214.993 68.38 217.755 68.38V63.38ZM233.645 22.85V17.85C230.883 17.85 228.645 20.0886 228.645 22.85H233.645ZM242.815 22.85H247.815C247.815 20.0886 245.576 17.85 242.815 17.85V22.85ZM241.065 53.02L240.605 57.9988C243.222 58.2404 245.579 56.4151 246 53.8212L241.065 53.02ZM231.965 52.18L227.029 51.3796C226.807 52.7475 227.163 54.146 228.011 55.2416C228.86 56.3372 230.125 57.0315 231.505 57.1588L231.965 52.18ZM248.345 16.41V11.41C245.583 11.41 243.345 13.6486 243.345 16.41H248.345ZM257.655 16.41H262.655C262.655 13.6486 260.416 11.41 257.655 11.41V16.41ZM257.655 81.23V86.23C260.416 86.23 262.655 83.9914 262.655 81.23H257.655ZM248.345 81.23H243.345C243.345 83.9914 245.583 86.23 248.345 86.23V81.23ZM254.925 42.45V37.45C252.163 37.45 249.925 39.6886 249.925 42.45H254.925ZM266.335 42.45H271.335C271.335 39.6886 269.096 37.45 266.335 37.45V42.45ZM266.335 50.15V55.15C269.096 55.15 271.335 52.9114 271.335 50.15H266.335ZM254.925 50.15H249.925C249.925 52.9114 252.163 55.15 254.925 55.15V50.15ZM206.975 68.14L202.006 68.6973C202.289 71.2272 204.429 73.14 206.975 73.14V68.14ZM206.135 60.65V55.65C204.711 55.65 203.356 56.2564 202.407 57.3173C201.459 58.3782 201.007 59.793 201.166 61.2073L206.135 60.65ZM245.405 58.83L250.392 58.4701C250.293 57.101 249.635 55.8328 248.574 54.9627C247.512 54.0927 246.139 53.6974 244.778 53.8695L245.405 58.83ZM245.895 65.62L246.738 70.5484C249.274 70.1144 251.067 67.8265 250.882 65.2601L245.895 65.62ZM209.425 27.85H237.355V17.85H209.425V27.85ZM232.355 22.85V30.2H242.355V22.85H232.355ZM237.355 25.2H209.425V35.2H237.355V25.2ZM214.425 30.2V22.85H204.425V30.2H214.425ZM217.755 46.4H226.925V36.4H217.755V46.4ZM221.925 41.4V63.38H231.925V41.4H221.925ZM226.925 58.38H217.755V68.38H226.925V58.38ZM222.755 63.38V41.4H212.755V63.38H222.755ZM233.645 27.85H242.815V17.85H233.645V27.85ZM237.815 22.85V28.1H247.815V22.85H237.815ZM237.815 28.1C237.815 34.3433 237.812 41.8525 236.129 52.2188L246 53.8212C247.817 42.6275 247.815 34.4567 247.815 28.1H237.815ZM241.524 48.0412L232.424 47.2012L231.505 57.1588L240.605 57.9988L241.524 48.0412ZM236.9 52.9804C238.647 42.2064 238.645 34.3853 238.645 28.1H228.645C228.645 34.2747 228.642 41.4336 227.029 51.3796L236.9 52.9804ZM238.645 28.1V22.85H228.645V28.1H238.645ZM248.345 21.41H257.655V11.41H248.345V21.41ZM252.655 16.41V81.23H262.655V16.41H252.655ZM257.655 76.23H248.345V86.23H257.655V76.23ZM253.345 81.23V16.41H243.345V81.23H253.345ZM254.925 47.45H266.335V37.45H254.925V47.45ZM261.335 42.45V50.15H271.335V42.45H261.335ZM266.335 45.15H254.925V55.15H266.335V45.15ZM259.925 50.15V42.45H249.925V50.15H259.925ZM211.943 67.5827L211.103 60.0927L201.166 61.2073L202.006 68.6973L211.943 67.5827ZM206.135 65.65C217.549 65.65 232.949 65.4439 246.031 63.7905L244.778 53.8695C232.381 55.4361 217.54 55.65 206.135 55.65V65.65ZM240.418 59.1899L240.908 65.9799L250.882 65.2601L250.392 58.4701L240.418 59.1899ZM245.051 60.6916C232.413 62.8544 218.22 63.14 206.975 63.14V73.14C218.269 73.14 233.196 72.8656 246.738 70.5484L245.051 60.6916Z" fill="white" mask="url(#path-1-outside-1_229_178)"/>
</g>
<defs>
<clipPath id="clip0_229_178">
<rect width="279" height="100" fill="white"/>
</clipPath>
</defs>
</svg>
